<?xml version="1.0" encoding="utf-8"?>
<!-- Generator: Adobe Illustrator 16.0.0, SVG Export Plug-In . SVG Version: 6.00 Build 0)  -->
<!DOCTYPE svg PUBLIC "-//W3C//DTD SVG 1.1//EN" "http://www.w3.org/Graphics/SVG/1.1/DTD/svg11.dtd">
<svg version="1.1" id="レイヤー_1" xmlns="http://www.w3.org/2000/svg" xmlns:xlink="http://www.w3.org/1999/xlink" x="0px"
	 y="0px" width="352.66px" height="52.461px" viewBox="0 0 352.66 52.461" enable-background="new 0 0 352.66 52.461"
	 xml:space="preserve">
<g>
	
		<linearGradient id="SVGID_1_" gradientUnits="userSpaceOnUse" x1="52.4014" y1="1.876" x2="58.7303" y2="58.1704" gradientTransform="matrix(1 0 -0.2705 1 81.9819 0)">
		<stop  offset="0" style="stop-color:#0075C2"/>
		<stop  offset="0.5" style="stop-color:#0068B7"/>
		<stop  offset="0.5" style="stop-color:#0067B2"/>
		<stop  offset="0.5" style="stop-color:#466395"/>
		<stop  offset="0.5" style="stop-color:#7A5C79"/>
		<stop  offset="0.5" style="stop-color:#9A5460"/>
		<stop  offset="0.5" style="stop-color:#B34A4B"/>
		<stop  offset="0.5" style="stop-color:#C43E3A"/>
		<stop  offset="0.5" style="stop-color:#D2312C"/>
		<stop  offset="0.5" style="stop-color:#DB2221"/>
		<stop  offset="0.5" style="stop-color:#E21218"/>
		<stop  offset="0.5" style="stop-color:#E50313"/>
		<stop  offset="0.5" style="stop-color:#E60012"/>
		<stop  offset="1" style="stop-color:#E60012"/>
	</linearGradient>
	<path fill="url(#SVGID_1_)" d="M121.718,23.888c-0.758,0.091-1.178-0.19-1.519-0.662c-0.342-0.472-0.401-1.116-0.181-1.933
		c0.422-1.56,1.688-2.993,3.798-4.299c2.108-1.307,4.75-1.96,7.923-1.96c2.435,0,3.227,0.307,4.562,1.116
		c1,0.606,1.6,1.645,1.835,2.843c0.148,0.78-0.049,2.174-0.701,4.586l-2.289,8.463c-0.644,2.377-1.128,4.349-1.172,4.884
		c-0.045,0.535,0.022,0.894,0.203,1.075s0.42,0.272,0.72,0.272c0.319,0,0.616-0.063,0.89-0.191c0.482-0.235,4.636-3.246,6.127-4.335
		h0.333l-3.771,3.356c-2.972,2.722-4.218,3.593-6.254,3.593c-0.978,0-1.672-0.31-2.084-0.926s-0.56-1.179-0.177-2.667
		c-3.349,1.978-5.424,3.121-6.227,3.43c-1.199,0.453-2.408,0.68-3.626,0.68c-1.896,0-3.298-0.589-4.206-1.769
		s-1.103-2.73-0.582-4.653c0.328-1.216,0.912-2.268,1.752-3.157c1.151-1.233,2.888-2.395,5.207-3.482
		c2.319-1.089,6.046-2.413,11.178-3.974l0.265-0.979c0.673-2.485,0.7-4.19,0.082-5.116c-0.618-0.925-1.755-1.388-3.411-1.388
		c-1.258,0-2.318,0.351-3.244,0.926c-1.795,1.115-2.601,2.662-2.995,3.618C123.758,22.194,123.181,23.711,121.718,23.888z
		 M130.32,35.776l2.74-10.133c-3.816,1.139-6.354,2.141-7.503,2.614c-2.063,0.836-3.611,1.709-4.647,2.62s-1.701,1.908-1.993,2.99
		c-0.37,1.366-0.178,2.501,0.578,3.403c0.754,0.901,1.782,1.352,3.084,1.352C124.345,38.623,126.925,37.675,130.32,35.776z"/>
	<g>
		
			<linearGradient id="SVGID_2_" gradientUnits="userSpaceOnUse" x1="94.0313" y1="-2.8042" x2="100.3602" y2="53.4898" gradientTransform="matrix(1 0 -0.2705 1 81.9819 0)">
			<stop  offset="0" style="stop-color:#0075C2"/>
			<stop  offset="0.5" style="stop-color:#0068B7"/>
			<stop  offset="0.5" style="stop-color:#0067B2"/>
			<stop  offset="0.5" style="stop-color:#466395"/>
			<stop  offset="0.5" style="stop-color:#7A5C79"/>
			<stop  offset="0.5" style="stop-color:#9A5460"/>
			<stop  offset="0.5" style="stop-color:#B34A4B"/>
			<stop  offset="0.5" style="stop-color:#C43E3A"/>
			<stop  offset="0.5" style="stop-color:#D2312C"/>
			<stop  offset="0.5" style="stop-color:#DB2221"/>
			<stop  offset="0.5" style="stop-color:#E21218"/>
			<stop  offset="0.5" style="stop-color:#E50313"/>
			<stop  offset="0.5" style="stop-color:#E60012"/>
			<stop  offset="1" style="stop-color:#E60012"/>
		</linearGradient>
		<path fill="url(#SVGID_2_)" d="M174.896,37.974c-1.682,1.271-3.236,2.183-4.663,2.735s-2.88,0.831-4.357,0.831
			c-2.027,0-4.476-0.988-5.889-3.417c-1.396-2.398-1.639-5.204-0.671-8.78c0.967-3.575,2.781-6.847,6.06-9.814
			c3.277-2.967,6.692-4.45,9.724-4.45c2.415,0,4.224,0.698,5.423,2.096l1.244-4.601c0.771-2.85,1.867-7.182,1.895-7.836
			c0.027-0.652-0.088-1.098-0.343-1.334c-0.256-0.235-0.623-0.354-1.103-0.354c-0.52,0-4.248,1.274-5.184,1.564l-0.271-0.437
			L187.728,0h0.831l-8.496,31.411c-0.79,2.922-1.197,4.705-1.223,5.35c-0.023,0.645,0.095,1.094,0.355,1.348s0.61,0.381,1.049,0.381
			c0.539,0,1.396-0.18,2.379-0.488l0.114,0.462l-7.78,3.077h-1.026L174.896,37.974z M175.235,36.716l3.593-13.281
			c0.226-1.275,0.181-2.438-0.135-3.489c-0.314-1.051-0.895-1.843-1.737-2.378c-0.844-0.534-1.734-0.802-2.673-0.802
			c-1.758,0-3.524,0.741-5.303,2.223c-2.346,1.951-4.023,4.803-5.039,8.555c-1.024,3.789-0.932,6.691,0.279,8.709
			c1.212,2.016,2.896,3.024,5.053,3.024C171.089,39.276,173.077,38.423,175.235,36.716z"/>
	</g>
	
		<linearGradient id="SVGID_3_" gradientUnits="userSpaceOnUse" x1="-34.5225" y1="11.6509" x2="-28.1939" y2="67.9415" gradientTransform="matrix(1 0 -0.2705 1 81.9819 0)">
		<stop  offset="0" style="stop-color:#0075C2"/>
		<stop  offset="0.5" style="stop-color:#0068B7"/>
		<stop  offset="0.5" style="stop-color:#0067B2"/>
		<stop  offset="0.5" style="stop-color:#466395"/>
		<stop  offset="0.5" style="stop-color:#7A5C79"/>
		<stop  offset="0.5" style="stop-color:#9A5460"/>
		<stop  offset="0.5" style="stop-color:#B34A4B"/>
		<stop  offset="0.5" style="stop-color:#C43E3A"/>
		<stop  offset="0.5" style="stop-color:#D2312C"/>
		<stop  offset="0.5" style="stop-color:#DB2221"/>
		<stop  offset="0.5" style="stop-color:#E21218"/>
		<stop  offset="0.5" style="stop-color:#E50313"/>
		<stop  offset="0.5" style="stop-color:#E60012"/>
		<stop  offset="1" style="stop-color:#E60012"/>
	</linearGradient>
	<path fill="url(#SVGID_3_)" d="M45.275,15.024c3.899,0,6.643,1.434,8.229,4.301c1.343,2.45,1.585,5.264,0.727,8.439
		c-0.604,2.232-1.769,4.491-3.493,6.778s-3.714,4.011-5.969,5.173c-2.254,1.161-4.572,1.742-6.953,1.742
		c-3.881,0-6.559-1.497-8.036-4.492c-1.249-2.522-1.448-5.354-0.599-8.493c0.618-2.287,1.818-4.561,3.602-6.82
		c1.782-2.259,3.776-3.929,5.98-5.009C40.968,15.564,43.139,15.024,45.275,15.024z M43.935,16.222c-1.163,0-2.415,0.301-3.752,0.901
		c-1.338,0.6-2.573,1.653-3.705,3.159s-2.018,3.44-2.657,5.804c-1.031,3.813-1.047,7.102-0.048,9.864
		c0.999,2.765,2.926,4.146,5.781,4.146c2.13,0,4.095-0.763,5.892-2.288c1.795-1.524,3.196-4.146,4.201-7.862
		c1.258-4.65,1.096-8.311-0.489-10.979C48.092,17.137,46.352,16.222,43.935,16.222z"/>
	
		<linearGradient id="SVGID_4_" gradientUnits="userSpaceOnUse" x1="-11.2163" y1="9.0303" x2="-4.8878" y2="65.3206" gradientTransform="matrix(1 0 -0.2705 1 81.9819 0)">
		<stop  offset="0" style="stop-color:#0075C2"/>
		<stop  offset="0.5" style="stop-color:#0068B7"/>
		<stop  offset="0.5" style="stop-color:#0067B2"/>
		<stop  offset="0.5" style="stop-color:#466395"/>
		<stop  offset="0.5" style="stop-color:#7A5C79"/>
		<stop  offset="0.5" style="stop-color:#9A5460"/>
		<stop  offset="0.5" style="stop-color:#B34A4B"/>
		<stop  offset="0.5" style="stop-color:#C43E3A"/>
		<stop  offset="0.5" style="stop-color:#D2312C"/>
		<stop  offset="0.5" style="stop-color:#DB2221"/>
		<stop  offset="0.5" style="stop-color:#E21218"/>
		<stop  offset="0.5" style="stop-color:#E50313"/>
		<stop  offset="0.5" style="stop-color:#E60012"/>
		<stop  offset="1" style="stop-color:#E60012"/>
	</linearGradient>
	<path fill="url(#SVGID_4_)" d="M67.096,15.024l-1.548,5.723c3.375-3.815,6.295-5.723,8.761-5.723c1.12,0,1.963,0.31,2.528,0.931
		c0.566,0.62,0.829,1.343,0.519,2.153c-0.178,0.464-0.396,0.715-0.66,0.985c-0.582,0.594-1.381,0.806-2.004,0.556
		c-0.604-0.243-1.148-0.864-1.875-1.459c-0.743-0.607-1.929-0.303-2.403-0.179c-0.38,0.1-0.957,0.375-1.484,0.745
		c-1.123,0.76-2.408,2.01-3.857,3.75l-3.454,12.771c-0.38,1.408-0.475,2.473-0.283,3.195c0.13,0.5,0.485,0.917,1.068,1.25
		c0.582,0.333,0.978,0.5,2.24,0.5l-0.128,0.473H52.806l0.128-0.473c1.426,0,2.015-0.204,2.817-0.611
		c0.589-0.296,1.073-0.769,1.452-1.417c0.188-0.314,0.481-1.213,0.883-2.694l2.667-9.863c0.802-2.963,1.354-5.254,1.375-5.819
		c0.021-0.564-0.112-0.977-0.398-1.236c-0.286-0.259-0.695-0.389-1.225-0.389c-0.631,0-1.453,0.146-2.323,0.424l-0.106-0.48
		l7.737-3.111H67.096z"/>
	
		<linearGradient id="SVGID_5_" gradientUnits="userSpaceOnUse" x1="72.6948" y1="-0.4023" x2="79.0233" y2="55.8879" gradientTransform="matrix(1 0 -0.2705 1 81.9819 0)">
		<stop  offset="0" style="stop-color:#0075C2"/>
		<stop  offset="0.5" style="stop-color:#0068B7"/>
		<stop  offset="0.5" style="stop-color:#0067B2"/>
		<stop  offset="0.5" style="stop-color:#466395"/>
		<stop  offset="0.5" style="stop-color:#7A5C79"/>
		<stop  offset="0.5" style="stop-color:#9A5460"/>
		<stop  offset="0.5" style="stop-color:#B34A4B"/>
		<stop  offset="0.5" style="stop-color:#C43E3A"/>
		<stop  offset="0.5" style="stop-color:#D2312C"/>
		<stop  offset="0.5" style="stop-color:#DB2221"/>
		<stop  offset="0.5" style="stop-color:#E21218"/>
		<stop  offset="0.5" style="stop-color:#E50313"/>
		<stop  offset="0.5" style="stop-color:#E60012"/>
		<stop  offset="1" style="stop-color:#E60012"/>
	</linearGradient>
	<path fill="url(#SVGID_5_)" d="M152.067,15.024l-1.548,5.723c3.374-3.815,6.295-5.723,8.76-5.723c1.121,0,1.964,0.31,2.529,0.931
		c0.566,0.62,0.829,1.343,0.519,2.153c-0.179,0.464-0.396,0.715-0.66,0.985c-0.582,0.594-1.382,0.806-2.004,0.556
		c-0.604-0.243-1.148-0.864-1.875-1.459c-0.744-0.607-1.929-0.303-2.403-0.179c-0.38,0.1-0.957,0.375-1.485,0.745
		c-1.122,0.76-2.407,2.01-3.856,3.75l-3.454,12.771c-0.381,1.408-0.475,2.473-0.283,3.195c0.13,0.5,0.485,0.917,1.068,1.25
		c0.582,0.333,0.977,0.5,2.24,0.5l-0.128,0.473h-11.709l0.128-0.473c1.426,0,2.014-0.204,2.816-0.611
		c0.589-0.296,1.073-0.769,1.453-1.417c0.187-0.314,0.481-1.213,0.882-2.694l2.668-9.863c0.801-2.963,1.354-5.254,1.375-5.819
		c0.02-0.564-0.113-0.977-0.399-1.236c-0.286-0.259-0.694-0.389-1.224-0.389c-0.632,0-1.453,0.146-2.323,0.424l-0.106-0.48
		l7.736-3.111H152.067z"/>
	
		<linearGradient id="SVGID_6_" gradientUnits="userSpaceOnUse" x1="205.0908" y1="-15.2891" x2="211.4197" y2="41.0046" gradientTransform="matrix(1 0 -0.2705 1 81.9819 0)">
		<stop  offset="0" style="stop-color:#0075C2"/>
		<stop  offset="0.5" style="stop-color:#0068B7"/>
		<stop  offset="0.5" style="stop-color:#0067B2"/>
		<stop  offset="0.5" style="stop-color:#466395"/>
		<stop  offset="0.5" style="stop-color:#7A5C79"/>
		<stop  offset="0.5" style="stop-color:#9A5460"/>
		<stop  offset="0.5" style="stop-color:#B34A4B"/>
		<stop  offset="0.5" style="stop-color:#C43E3A"/>
		<stop  offset="0.5" style="stop-color:#D2312C"/>
		<stop  offset="0.5" style="stop-color:#DB2221"/>
		<stop  offset="0.5" style="stop-color:#E21218"/>
		<stop  offset="0.5" style="stop-color:#E50313"/>
		<stop  offset="0.5" style="stop-color:#E60012"/>
		<stop  offset="1" style="stop-color:#E60012"/>
	</linearGradient>
	<path fill="url(#SVGID_6_)" d="M279.728,40.577c-0.724-0.444-1.174-1.08-1.353-1.908c-0.179-0.827-0.034-2.104,0.432-3.828
		l4.89-18.078h-5.654l0.1-0.366c0,0,8.295-0.143,11.313-8.832h0.481l-2.127,7.865h6.646l-0.361,1.333h-6.646l-4.734,17.504
		c-0.42,1.551-0.458,2.596-0.115,3.136s0.896,0.81,1.664,0.81c0.632,0,1.293-0.179,1.984-0.535c0.689-0.357,1.292-0.885,1.807-1.581
		h0.673c-1.133,1.707-2.014,2.922-3.439,3.854C281.985,42.109,279.728,40.577,279.728,40.577z"/>
	
		<linearGradient id="SVGID_7_" gradientUnits="userSpaceOnUse" x1="223.8418" y1="-17.3979" x2="230.1707" y2="38.8958" gradientTransform="matrix(1 0 -0.2705 1 81.9819 0)">
		<stop  offset="0" style="stop-color:#0075C2"/>
		<stop  offset="0.5" style="stop-color:#0068B7"/>
		<stop  offset="0.5" style="stop-color:#0067B2"/>
		<stop  offset="0.5" style="stop-color:#466395"/>
		<stop  offset="0.5" style="stop-color:#7A5C79"/>
		<stop  offset="0.5" style="stop-color:#9A5460"/>
		<stop  offset="0.5" style="stop-color:#B34A4B"/>
		<stop  offset="0.5" style="stop-color:#C43E3A"/>
		<stop  offset="0.5" style="stop-color:#D2312C"/>
		<stop  offset="0.5" style="stop-color:#DB2221"/>
		<stop  offset="0.5" style="stop-color:#E21218"/>
		<stop  offset="0.5" style="stop-color:#E50313"/>
		<stop  offset="0.5" style="stop-color:#E60012"/>
		<stop  offset="1" style="stop-color:#E60012"/>
	</linearGradient>
	<path fill="url(#SVGID_7_)" d="M296.215,25.176c-1.372,3.813-1.73,7.598-0.306,9.7c0.838,1.235,2.176,2.249,3.809,2.614
		c1.146,0.256,2.462,0.229,3.573,0.182c1.813-0.076,3.779-0.808,5.348-1.705c1.568-0.896,3.324-2.369,4.809-4.544l0.403,0.195
		c-1.09,2.482-2.917,4.743-5.481,6.781c-2.565,2.039-5.362,3.059-8.392,3.059c-3.289,0-5.79-1.164-7.503-3.493
		c-1.713-2.328-2.036-5.459-0.973-9.392c1.151-4.258,3.251-7.579,6.298-9.962c3.046-2.383,6.383-3.574,10.011-3.574
		c3.069,0,5.343,0.92,6.819,2.759c1.476,1.84,1.797,4.3,0.964,7.38H296.215z M296.644,24.114h15.104
		c0.514-1.898,0.163-3.234-0.015-3.93c-0.279-1.08-1.05-2.138-2.015-2.756c-0.964-0.617-2.064-0.926-3.299-0.926
		c-1.898,0-3.473,0.581-5.307,1.826C299.277,19.573,297.801,21.329,296.644,24.114z"/>
	<g>
		
			<linearGradient id="SVGID_8_" gradientUnits="userSpaceOnUse" x1="-58.9604" y1="14.397" x2="-52.6316" y2="70.6904" gradientTransform="matrix(1 0 -0.2705 1 81.9819 0)">
			<stop  offset="0" style="stop-color:#0075C2"/>
			<stop  offset="0.5" style="stop-color:#0068B7"/>
			<stop  offset="0.5" style="stop-color:#0067B2"/>
			<stop  offset="0.5" style="stop-color:#466395"/>
			<stop  offset="0.5" style="stop-color:#7A5C79"/>
			<stop  offset="0.5" style="stop-color:#9A5460"/>
			<stop  offset="0.5" style="stop-color:#B34A4B"/>
			<stop  offset="0.5" style="stop-color:#C43E3A"/>
			<stop  offset="0.5" style="stop-color:#D2312C"/>
			<stop  offset="0.5" style="stop-color:#DB2221"/>
			<stop  offset="0.5" style="stop-color:#E21218"/>
			<stop  offset="0.5" style="stop-color:#E50313"/>
			<stop  offset="0.5" style="stop-color:#E60012"/>
			<stop  offset="1" style="stop-color:#E60012"/>
		</linearGradient>
		<path fill="url(#SVGID_8_)" d="M9.547,1.159l0.222-0.82H36.32l-1.842,8.112H34.1c-0.006-1.724-0.212-2.989-0.619-3.798
			c-0.408-0.807-1.021-1.393-1.839-1.756c-0.818-0.362-2.19-0.544-4.114-0.544h-8.713l-3.925,14.51h7.298
			c1.542,0,2.765-0.34,3.666-1.021c0.9-0.68,1.741-2.027,2.522-4.042h0.434l-3.38,12.496h-0.434
			c0.369-1.434,0.469-2.486,0.296-3.158c-0.172-0.671-0.526-1.175-1.062-1.511s-1.42-0.504-2.654-0.504h-7.298l-4.207,15.556
			c-0.506,1.869-0.722,3.103-0.647,3.702c0.059,0.454,0.334,0.844,0.826,1.171c0.681,0.436,1.457,0.653,2.329,0.653h1.334
			l-0.134,0.49H0l0.133-0.49h1.307c1.525,0,2.752-0.445,3.683-1.334c0.593-0.581,1.188-1.978,1.787-4.192l6.59-24.365
			c0.506-1.868,1.652-6.545,1.578-7.144c-0.059-0.454-0.325-0.844-0.799-1.171c-0.663-0.436-1.409-0.643-2.287-0.72
			C10.909,1.171,9.547,1.159,9.547,1.159z"/>
		
			<linearGradient id="SVGID_9_" gradientUnits="userSpaceOnUse" x1="21.688" y1="5.3301" x2="28.0167" y2="61.6226" gradientTransform="matrix(1 0 -0.2705 1 81.9819 0)">
			<stop  offset="0" style="stop-color:#0075C2"/>
			<stop  offset="0.5" style="stop-color:#0068B7"/>
			<stop  offset="0.5" style="stop-color:#0067B2"/>
			<stop  offset="0.5" style="stop-color:#466395"/>
			<stop  offset="0.5" style="stop-color:#7A5C79"/>
			<stop  offset="0.5" style="stop-color:#9A5460"/>
			<stop  offset="0.5" style="stop-color:#B34A4B"/>
			<stop  offset="0.5" style="stop-color:#C43E3A"/>
			<stop  offset="0.5" style="stop-color:#D2312C"/>
			<stop  offset="0.5" style="stop-color:#DB2221"/>
			<stop  offset="0.5" style="stop-color:#E21218"/>
			<stop  offset="0.5" style="stop-color:#E50313"/>
			<stop  offset="0.5" style="stop-color:#E60012"/>
			<stop  offset="1" style="stop-color:#E60012"/>
		</linearGradient>
		<path fill="url(#SVGID_9_)" d="M79.946,16.275h10.396l-0.133,0.491c-0.981,0.072-1.658,0.244-2.031,0.517
			s-0.629,0.662-0.767,1.171c-0.152,0.563-0.182,1.243-0.089,2.041l1.441,15.376l9.213-12.707l-0.422-3.676
			c-0.141-1.089-0.509-1.842-1.104-2.26c-0.33-0.254-1.033-0.408-2.107-0.462l0.133-0.491h11.192l-0.133,0.491
			c-1.321,0.054-2.311,0.29-2.968,0.707c-0.442,0.291-0.749,0.754-0.921,1.389c-0.098,0.363-0.126,0.735-0.084,1.116l1.776,15.349
			l9.679-14.832c0.628-0.979,1.02-1.76,1.177-2.341c0.094-0.345,0-0.653-0.28-0.926c-0.28-0.271-2.079-0.426-3.104-0.462
			l0.133-0.491h10.162l-0.133,0.491c-1.644,0.236-4.242,1.307-5.5,3.212l-14.141,21.479h-1.116l-1.927-15.926L86.713,41.458h-1.008
			l-2.334-20.963c-0.168-1.324-0.465-2.2-0.826-2.681c-0.63-0.838-1.671-0.927-2.731-1.048L79.946,16.275z"/>
		
			<linearGradient id="SVGID_10_" gradientUnits="userSpaceOnUse" x1="134.9219" y1="-7.4014" x2="141.251" y2="48.8942" gradientTransform="matrix(1 0 -0.2705 1 81.9819 0)">
			<stop  offset="0" style="stop-color:#0075C2"/>
			<stop  offset="0.5" style="stop-color:#0068B7"/>
			<stop  offset="0.5" style="stop-color:#0067B2"/>
			<stop  offset="0.5" style="stop-color:#466395"/>
			<stop  offset="0.5" style="stop-color:#7A5C79"/>
			<stop  offset="0.5" style="stop-color:#9A5460"/>
			<stop  offset="0.5" style="stop-color:#B34A4B"/>
			<stop  offset="0.5" style="stop-color:#C43E3A"/>
			<stop  offset="0.5" style="stop-color:#D2312C"/>
			<stop  offset="0.5" style="stop-color:#DB2221"/>
			<stop  offset="0.5" style="stop-color:#E21218"/>
			<stop  offset="0.5" style="stop-color:#E50313"/>
			<stop  offset="0.5" style="stop-color:#E60012"/>
			<stop  offset="1" style="stop-color:#E60012"/>
		</linearGradient>
		<path fill="url(#SVGID_10_)" d="M231.9,0l-3.716,13.739h-0.528c0.361-2.637,0.401-5.109-0.085-6.672
			c-0.485-1.563-1.443-2.803-2.875-3.721s-2.949-1.731-4.746-1.731c-2.032,0-3.878,0.62-5.542,1.86
			c-1.663,1.24-2.905,3.379-3.334,4.961c-0.327,1.212-0.448,3.211,0.122,4.207c0.814,1.464,3.167,3.418,7.057,5.859
			c3.172,1.991,5.293,3.52,6.363,4.584c1.069,1.064,1.859,2.006,2.2,3.451c0.342,1.445,0.418,2.516-0.01,4.098
			c-0.813,3.008-2.644,5.46-5.566,7.638s-6.22,3.267-9.892,3.267c-1.152,0-2.843-0.031-3.811-0.206
			c-0.579-0.099-2.614-0.454-4.353-1.069c-1.736-0.616-2.747-0.98-3.254-0.98c-0.489,0-0.914,0.146-1.276,0.439
			s-0.736,0.898-1.121,1.816h-0.528l3.685-13.622h0.528c-0.264,2.852-0.334,5.259,0.129,6.682c0.602,1.851,1.561,2.999,2.984,3.811
			c1.865,1.064,3.355,1.527,6.835,1.527c2.44,0,4.983-1.052,6.748-2.341s2.63-3.088,3.105-4.846c0.264-0.976,0.44-2.62,0.172-3.616
			c-0.268-0.996-0.852-1.924-1.751-2.782c-0.604-0.587-2.347-1.831-5.229-3.736c-2.884-1.903-4.891-3.422-6.02-4.555
			s-1.879-2.382-2.252-3.75c-0.372-1.366-0.464-2.401-0.02-4.042c0.771-2.852,2.479-5.118,5.223-7.179S216.95,0,220.329,0
			c2.108,0,4.205,0.518,6.288,1.553c0.961,0.488,1.667,0.732,2.116,0.732c0.508,0,0.964-0.151,1.367-0.455
			c0.404-0.302,0.828-0.912,1.271-1.83H231.9z"/>
		
			<linearGradient id="SVGID_11_" gradientUnits="userSpaceOnUse" x1="186.1885" y1="-13.1641" x2="192.5174" y2="43.13" gradientTransform="matrix(1 0 -0.2705 1 81.9819 0)">
			<stop  offset="0" style="stop-color:#0075C2"/>
			<stop  offset="0.5" style="stop-color:#0068B7"/>
			<stop  offset="0.5" style="stop-color:#0067B2"/>
			<stop  offset="0.5" style="stop-color:#466395"/>
			<stop  offset="0.5" style="stop-color:#7A5C79"/>
			<stop  offset="0.5" style="stop-color:#9A5460"/>
			<stop  offset="0.5" style="stop-color:#B34A4B"/>
			<stop  offset="0.5" style="stop-color:#C43E3A"/>
			<stop  offset="0.5" style="stop-color:#D2312C"/>
			<stop  offset="0.5" style="stop-color:#DB2221"/>
			<stop  offset="0.5" style="stop-color:#E21218"/>
			<stop  offset="0.5" style="stop-color:#E50313"/>
			<stop  offset="0.5" style="stop-color:#E60012"/>
			<stop  offset="1" style="stop-color:#E60012"/>
		</linearGradient>
		<path fill="url(#SVGID_11_)" d="M275.886,14.996l-2.374,8.779h-0.338c0.231-1.685,0.191-3.026-0.119-4.024
			c-0.31-0.998-0.922-1.791-1.837-2.377c-0.915-0.587-1.946-0.881-3.094-0.881c-1.298,0-2.479,0.396-3.541,1.189
			c-1.063,0.792-1.731,1.693-2.005,2.705c-0.209,0.773-0.132,1.479,0.232,2.114c0.521,0.937,2.024,2.185,4.51,3.744
			c2.026,1.273,3.382,2.249,4.065,2.93s1.134,1.481,1.353,2.405c0.218,0.924,0.19,1.891-0.083,2.901
			c-0.521,1.922-1.714,3.579-3.581,4.97c-1.867,1.392-3.975,2.088-6.32,2.088c-0.736,0-1.414-0.057-2.033-0.169
			c-0.37-0.063-1.109-0.29-2.22-0.684c-1.11-0.393-1.828-0.589-2.152-0.589c-0.313,0-0.584,0.093-0.815,0.28
			c-0.232,0.188-0.471,0.574-0.717,1.161h-0.337l2.354-8.705h0.338c-0.169,1.822-0.101,3.186,0.204,4.09
			c0.305,0.905,0.939,1.657,1.907,2.257c0.968,0.599,2.125,0.897,3.474,0.897c1.559,0,2.902-0.411,4.03-1.234
			c1.128-0.824,1.844-1.798,2.147-2.921c0.169-0.624,0.167-1.254-0.004-1.891c-0.171-0.636-0.544-1.229-1.119-1.778
			c-0.385-0.374-1.499-1.17-3.342-2.387s-3.124-2.187-3.846-2.91c-0.722-0.725-1.201-1.522-1.439-2.396
			c-0.237-0.873-0.215-1.835,0.068-2.883c0.493-1.821,1.617-3.391,3.37-4.708c1.754-1.316,3.71-1.975,5.87-1.975
			c1.347,0,2.687,0.331,4.018,0.992c0.614,0.313,1.065,0.468,1.353,0.468c0.324,0,0.615-0.097,0.874-0.29
			c0.258-0.193,0.528-0.583,0.813-1.17H275.886z"/>
		
			<linearGradient id="SVGID_12_" gradientUnits="userSpaceOnUse" x1="164.6582" y1="-10.7441" x2="170.9871" y2="45.5497" gradientTransform="matrix(1 0 -0.2705 1 81.9819 0)">
			<stop  offset="0" style="stop-color:#0075C2"/>
			<stop  offset="0.5" style="stop-color:#0068B7"/>
			<stop  offset="0.5" style="stop-color:#0067B2"/>
			<stop  offset="0.5" style="stop-color:#466395"/>
			<stop  offset="0.5" style="stop-color:#7A5C79"/>
			<stop  offset="0.5" style="stop-color:#9A5460"/>
			<stop  offset="0.5" style="stop-color:#B34A4B"/>
			<stop  offset="0.5" style="stop-color:#C43E3A"/>
			<stop  offset="0.5" style="stop-color:#D2312C"/>
			<stop  offset="0.5" style="stop-color:#DB2221"/>
			<stop  offset="0.5" style="stop-color:#E21218"/>
			<stop  offset="0.5" style="stop-color:#E50313"/>
			<stop  offset="0.5" style="stop-color:#E60012"/>
			<stop  offset="1" style="stop-color:#E60012"/>
		</linearGradient>
		<path fill="url(#SVGID_12_)" d="M230.39,16.275h12.596l-0.133,0.491h0.002c-0.816,0-2.624,0.176-3.128,0.53
			c-0.504,0.354-0.828,0.794-0.97,1.32c-0.191,0.708-0.157,1.688,0.103,2.94l2.741,14.438l10.559-15.636
			c0.51-0.744,0.863-1.479,1.06-2.205c0.088-0.326,0.09-0.571,0.008-0.735c-0.092-0.199-0.275-0.357-0.552-0.477
			c-0.277-0.117-2.526-0.176-3.307-0.176l0.133-0.491h11.555l-0.133,0.491c-0.691,0.072-2.969,0.218-3.39,0.436
			c-0.423,0.217-0.933,0.626-1.53,1.225c-0.232,0.255-0.729,0.952-1.492,2.097l-16.885,24.882c-1.633,2.414-3.411,4.238-5.332,5.473
			c-1.923,1.233-3.493,1.484-4.992,1.568c-1.087,0.062-2.094-0.061-2.784-0.565c-0.659-0.481-0.567-0.991-0.274-1.787
			c0.281-0.762,0.621-1.374,1.245-1.837c0.625-0.463,1.33-0.58,2.111-0.356c0.719,0.206,1.262,0.411,2.282,0.646
			c0.729,0.168,1.201,0.069,1.39,0.023c0.589-0.142,1.164-0.439,1.96-1.002s1.903-1.908,2.993-3.523l2.94-4.328l-3.868-18.813
			c-0.121-0.562-0.367-1.261-0.74-2.096c-0.282-0.635-0.539-1.062-0.771-1.279c-0.339-0.29-1.836-0.703-3.529-0.762L230.39,16.275z"
			/>
		
			<linearGradient id="SVGID_13_" gradientUnits="userSpaceOnUse" x1="253.79" y1="-20.7622" x2="260.1187" y2="35.5292" gradientTransform="matrix(1 0 -0.2705 1 81.9819 0)">
			<stop  offset="0" style="stop-color:#0075C2"/>
			<stop  offset="0.5" style="stop-color:#0068B7"/>
			<stop  offset="0.5" style="stop-color:#0067B2"/>
			<stop  offset="0.5" style="stop-color:#466395"/>
			<stop  offset="0.5" style="stop-color:#7A5C79"/>
			<stop  offset="0.5" style="stop-color:#9A5460"/>
			<stop  offset="0.5" style="stop-color:#B34A4B"/>
			<stop  offset="0.5" style="stop-color:#C43E3A"/>
			<stop  offset="0.5" style="stop-color:#D2312C"/>
			<stop  offset="0.5" style="stop-color:#DB2221"/>
			<stop  offset="0.5" style="stop-color:#E21218"/>
			<stop  offset="0.5" style="stop-color:#E50313"/>
			<stop  offset="0.5" style="stop-color:#E60012"/>
			<stop  offset="1" style="stop-color:#E60012"/>
		</linearGradient>
		<path fill="url(#SVGID_13_)" d="M324.821,20.332c2.306-1.814,3.658-2.858,4.06-3.13c1.003-0.689,2.027-1.226,3.075-1.606
			c1.046-0.382,1.839-0.571,2.765-0.571c1.002,0,1.942,0.453,2.822,1.36c0.879,0.908,1.276,2.224,1.191,3.947
			c2.458-2.178,4.424-3.607,5.897-4.287c1.472-0.681,2.641-1.021,4.003-1.021c1.324,0,2.246,0.562,2.946,1.378
			c0.762,0.888,0.87,1.435,1.052,2.977c0.115,1.053-0.132,2.705-0.74,4.955l-2.901,10.727c-0.423,1.561-0.733,3.147-0.654,3.729
			c0.072,0.399,0.317,0.74,0.731,1.021c0.413,0.282,1.174,0.422,2.281,0.422l-0.126,0.464h-11.272l0.125-0.464h0.518
			c1.07,0,1.962-0.208,2.674-0.626c0.496-0.29,0.92-0.753,1.274-1.388c0.155-0.309,0.569-1.705,0.963-3.157l3.04-11.242
			c0.55-2.033,0.692-3.467,0.428-4.302c-0.394-1.161-1.37-1.742-2.931-1.742c-0.963,0-1.994,0.24-3.095,0.722
			c-1.102,0.48-2.519,1.374-4.251,2.681l-0.136,0.3l-0.262,1.171l-3.357,12.413c-0.461,1.706-0.793,3.284-0.715,3.701
			c0.077,0.418,0.341,0.768,0.791,1.048c0.45,0.282,1.312,0.422,2.582,0.422l-0.126,0.464h-11.572l0.126-0.464
			c1.379,0,2.371-0.163,2.977-0.489c0.606-0.327,1.097-0.816,1.473-1.471c0.175-0.308,0.604-1.723,1.006-3.211l3.041-11.242
			c0.55-2.033,0.646-3.494,0.287-4.384c-0.485-1.16-1.444-1.742-2.878-1.742c-0.98,0-2.022,0.264-3.127,0.79
			c-1.723,0.799-3.126,1.696-4.213,2.694l-3.755,13.884c-0.442,1.634-0.756,3.211-0.661,3.701c0.094,0.49,0.331,0.857,0.709,1.103
			s1.248,0.367,2.609,0.367l-0.126,0.464H312.07l0.125-0.464c1.144,0,1.975-0.122,2.495-0.367c0.52-0.245,0.97-0.635,1.351-1.171
			c0.381-0.535,0.92-2.09,1.337-3.633l2.577-9.528c0.741-2.74,1.277-5.025,1.33-5.825c0.035-0.599-0.053-1.012-0.264-1.239
			c-0.211-0.226-0.552-0.34-1.023-0.34c-0.509,0-1.313,0.189-2.095,0.462l-0.123-0.517l7.306-3.049h1.171L324.821,20.332z"/>
	</g>
</g>
</svg>
