<?xml version="1.0" encoding="utf-8"?>
<!-- Generator: Adobe Illustrator 16.0.0, SVG Export Plug-In . SVG Version: 6.00 Build 0)  -->
<!DOCTYPE svg PUBLIC "-//W3C//DTD SVG 1.1//EN" "http://www.w3.org/Graphics/SVG/1.1/DTD/svg11.dtd">
<svg version="1.1" id="レイヤー_1" xmlns="http://www.w3.org/2000/svg" xmlns:xlink="http://www.w3.org/1999/xlink" x="0px"
	 y="0px" width="179.106px" height="47.723px" viewBox="0 0 179.106 47.723" enable-background="new 0 0 179.106 47.723"
	 xml:space="preserve">
<g>
	<g>
		<g>
			<path fill="#EA5504" d="M18.151,21.772l-5.786,18.264c-0.776,2.447-0.901,3.969-0.375,4.561c0.703,0.842,2.869,1.263,4.834,1.263
				h0.671l-0.164,0.518H0l0.164-0.518h0.633c2.193,0,4.019-0.535,5.303-1.606c0.697-0.593,1.398-1.998,2.101-4.217L18.875,6.341
				c0.776-2.448,0.913-3.968,0.412-4.561c-0.729-0.841-2.758-1.262-4.723-1.262h-0.633L14.096,0h15.2
				c4.643,0,8.056,0.466,10.395,1.332c2.377,0.88,3.308,1.6,4.48,3.374c1.244,1.88,1.094,4.467,0.354,6.8
				c-1.006,3.175-3.151,5.907-6.506,8.086c-3.3,2.143-6.296,2.983-11.398,2.983c-1.25,0-2.581-0.066-3.993-0.201
				C21.217,22.241,19.725,22.04,18.151,21.772z M18.669,20.136c1.43,0.191,2.706,0.335,3.829,0.431
				c1.122,0.096,2.091,0.143,2.906,0.143c2.925,0,5.692-0.77,8.304-2.309c2.61-1.54,4.476-4.077,5.251-6.525
				c0.533-1.683,0.695-3.79,0.141-5.234c-0.555-1.444-1.647-2.524-3.275-3.242c-1.629-0.717-3.625-1.076-5.986-1.076
				c-1.434,0-3.334,0.182-5.698,0.545L18.669,20.136z"/>
			<path fill="#EA5504" d="M40.932,29.202C40.13,29.297,39.7,29,39.363,28.502c-0.336-0.496-0.368-1.176-0.096-2.036
				c0.521-1.645,1.926-3.155,4.214-4.532c2.287-1.377,5.104-2.066,8.448-2.066c2.566,0,3.387,0.323,4.754,1.176
				c1.024,0.64,1.606,1.734,1.796,2.997c0.118,0.822-0.158,2.291-0.964,4.834l-2.826,8.922c-0.794,2.506-1.401,4.585-1.474,5.148
				c-0.074,0.564-0.02,0.942,0.162,1.133c0.181,0.191,0.429,0.287,0.745,0.287c0.336,0,0.652-0.066,0.947-0.201
				c0.52-0.248,1.594-0.945,3.22-2.094l-0.337,1.063c-3.266,2.869-4.622,3.787-6.769,3.787c-1.031,0-1.748-0.326-2.152-0.976
				s-0.532-1.243-0.056-2.812c-3.627,2.085-5.87,3.29-6.731,3.615c-1.287,0.478-2.572,0.717-3.855,0.717
				c-1.999,0-3.447-0.621-4.348-1.865c-0.899-1.242-1.029-2.877-0.387-4.904c0.406-1.281,1.073-2.391,2.001-3.328
				c1.274-1.301,3.161-2.524,5.66-3.672c2.498-1.148,6.491-2.543,11.977-4.188l0.328-1.032c0.83-2.621,0.941-4.418,0.336-5.395
				c-0.606-0.975-1.783-1.463-3.528-1.463c-1.326,0-2.461,0.369-3.465,0.977c-1.946,1.176-2.871,2.807-3.335,3.814
				C43.166,27.416,42.483,29.014,40.932,29.202z M49.42,41.734l3.384-10.683c-4.079,1.201-6.802,2.258-8.037,2.758
				c-2.215,0.881-3.89,1.801-5.026,2.762c-1.138,0.961-1.887,2.011-2.248,3.152c-0.457,1.439-0.31,2.637,0.443,3.586
				c0.751,0.951,1.813,1.426,3.186,1.426C42.982,44.735,45.748,43.735,49.42,41.734z"/>
			<path fill="#EA5504" d="M64.637,46.62c-0.771-0.488-1.234-1.186-1.388-2.095c-0.154-0.908,0.069-2.31,0.669-4.202l6.288-19.848
				h-6.208l0.128-0.403c0,0,9.114-0.156,12.869-9.696h0.528l-2.735,8.635h7.297l-0.464,1.464h-7.297l-6.088,19.216
				c-0.54,1.702-0.635,2.851-0.285,3.442c0.348,0.594,0.942,0.89,1.784,0.89c0.694,0,1.43-0.196,2.206-0.588
				c0.775-0.392,5.176-3.925,8.052-7.808l-0.003,0.371c-1.331,1.875-4.904,7.042-9.218,9.932C67.087,48.4,64.637,46.62,64.637,46.62
				z"/>
			<path fill="#EA5504" d="M104.848,37.052c-2.267,3.641-4.399,6.239-8.007,8.401c-2.6,1.558-5.83,2.27-8.586,2.27
				c-3.281,0-5.745-1.252-7.392-3.758c-1.647-2.505-1.795-5.891-0.443-10.155c1.309-4.131,3.723-7.487,7.245-10.069
				c3.521-2.582,7.176-3.873,10.962-3.873c2.84,0,4.958,0.684,6.355,2.051c1.396,1.368,1.862,2.787,1.396,4.261
				c-0.23,0.727-0.675,1.314-1.332,1.764c-0.658,0.449-1.449,0.674-2.375,0.674c-1.241,0-2.063-0.363-2.463-1.09
				c-0.231-0.401-0.226-1.166,0.017-2.295s0.089-1.989-0.46-2.582c-0.555-0.574-1.391-1.069-2.659-1.168
				c-2.044-0.16-5.124,0.887-6.854,2.303c-2.299,1.874-4.071,4.41-5.218,7.484c-1.164,3.118-1.433,6.295-0.522,8.709
				c1.182,3.135,4.303,3.959,7.208,3.881c1.386-0.037,2.801-0.236,4.341-0.861c0.813-0.33,1.877-0.879,2.627-1.362
				c1.427-0.938,3.796-2.624,5.624-4.938L104.848,37.052z"/>
			<path fill="#EA5504" d="M123.942,19.868c4.108,0,6.93,1.511,8.462,4.533c1.295,2.582,1.413,5.547,0.353,8.893
				c-0.745,2.354-2.082,4.734-4.012,7.144c-1.929,2.409-4.109,4.228-6.542,5.45c-2.432,1.224-4.903,1.836-7.412,1.836
				c-4.09,0-6.839-1.577-8.25-4.732c-1.191-2.658-1.264-5.643-0.216-8.951c0.764-2.409,2.14-4.805,4.129-7.186
				c1.988-2.381,4.171-4.141,6.547-5.279C119.376,20.438,121.69,19.868,123.942,19.868z M122.471,21.131
				c-1.227,0-2.561,0.316-3.999,0.948c-1.438,0.633-2.791,1.743-4.058,3.329c-1.267,1.588-2.294,3.626-3.084,6.117
				c-1.272,4.018-1.449,7.482-0.532,10.395c0.918,2.912,2.881,4.369,5.89,4.369c2.245,0,4.353-0.804,6.32-2.411
				c1.967-1.606,3.57-4.368,4.812-8.286c1.553-4.9,1.56-8.757,0.021-11.569C126.807,22.094,125.018,21.131,122.471,21.131z"/>
			<path fill="#EA5504" d="M146.408,19.868l-1.872,5.91c3.667-3.939,6.773-5.91,9.319-5.91c1.157,0,2.013,0.32,2.566,0.961
				c0.555,0.641,0.792,1.387,0.433,2.224c-0.206,0.479-0.533,0.828-0.819,1.107c-0.63,0.613-1.444,0.774-2.202,0.774
				c-0.736,0-1.457-0.33-2.163-0.989c-0.707-0.66-1.697-0.465-2.167-0.4c-0.392,0.054-1.007,0.387-1.569,0.77
				c-1.195,0.784-2.582,2.075-4.161,3.873l-3.99,12.594c-0.461,1.453-0.608,2.553-0.445,3.299c0.109,0.516,0.457,0.946,1.043,1.291
				c0.585,0.344,0.985,0.516,2.289,0.516l-0.154,0.489h-12.624l0.155-0.489c1.472,0,2.089-0.21,2.938-0.631
				c0.623-0.306,1.146-0.793,1.568-1.463c0.208-0.324,0.555-1.252,1.039-2.783l3.227-10.184c0.97-3.06,1.65-5.426,1.698-6.009
				s-0.069-1.009-0.353-1.276s-0.698-0.402-1.245-0.402c-0.652,0-1.508,0.151-2.419,0.438l-0.087-0.497l8.67-3.212H146.408z"/>
			<path fill="#EA5504" d="M158.018,30.54c-1.635,4.025-2.198,8.02-0.797,10.238c0.823,1.304,2.187,2.373,3.892,2.758
				c1.196,0.271,2.588,0.242,3.762,0.192c1.918-0.081,4.028-0.853,5.728-1.8c1.699-0.945,3.625-2.5,5.298-4.795l0.416,0.205
				c-1.271,2.621-3.312,5.006-6.117,7.158c-2.807,2.151-5.809,3.227-9.006,3.227c-3.471,0-6.054-1.229-7.747-3.686
				s-1.883-5.762-0.567-9.912c1.424-4.494,3.802-7.998,7.134-10.514c3.331-2.515,6.911-3.772,10.74-3.772
				c3.239,0,5.594,0.971,7.062,2.912c1.468,1.94,1.686,4.538,0.656,7.788H158.018z M158.521,29.42h15.94
				c0.635-2.005,0.33-3.414,0.177-4.148c-0.242-1.14-1.003-2.256-1.991-2.908c-0.987-0.651-2.134-0.978-3.437-0.978
				c-2.004,0-3.693,0.614-5.689,1.927C161.523,24.627,159.88,26.48,158.521,29.42z"/>
		</g>
		<path fill="#EA5504" d="M57.953,43.133c0,0,4.866-4.058,7.796-7.071H65.42c0,0-3.647,3.402-7.13,6.009"/>
		<path fill="#EA5504" d="M102.773,40.087c0,0,2.525-3.255,4.168-6.919h-0.275c0,0-1.085,1.958-2.355,3.529"/>
	</g>
</g>
</svg>
