<?xml version="1.0" encoding="utf-8"?>
<!-- Generator: Adobe Illustrator 22.1.0, SVG Export Plug-In . SVG Version: 6.00 Build 0)  -->
<svg version="1.1" xmlns="http://www.w3.org/2000/svg" xmlns:xlink="http://www.w3.org/1999/xlink" x="0px" y="0px"
	 viewBox="0 0 340.6 158.7" style="enable-background:new 0 0 340.6 158.7;" xml:space="preserve">
<style type="text/css">
	.st0{fill:#231815;}
	.st1{fill:#E50012;}
	.st2{fill:url(#SVGID_1_);}
	.st3{fill:#1C50A1;}
	.st4{fill:url(#SVGID_2_);}
	.st5{fill:url(#SVGID_3_);}
	.st6{fill:url(#SVGID_4_);}
	.st7{fill:url(#SVGID_5_);}
</style>
<g id="デザイン">
</g>
<g id="レギュレーション">
	<g>
		<g>
			<g>
				<g>
					<path class="st0" d="M53,158.7c-0.1,0-0.2-0.2-0.4-0.2c-0.2-0.2-0.2-0.5-0.2-0.7c-0.4,0.1-1,0.4-1.6,0.5c0,0-0.1,0-0.1,0
						c-0.1,0-0.2,0-0.2-0.1c0.2,0,0.3,0,0.4-0.1c0-0.1-0.1-0.1-0.2-0.1h-0.2c-0.2,0-0.4-0.2-0.6-0.3c-0.1-0.1-0.1-0.2-0.3-0.2v0
						c0,0.4,0.4,0.4,0.5,0.7c-0.4-0.1-0.6-0.4-0.8-0.6c-0.2-0.3-0.4-0.6-0.4-1c0-0.1,0-0.2,0-0.4c0-1.2,0.4-2.1,0.9-2.9
						c0.2-0.3,0.4-0.6,0.6-0.7c0.3-0.3,0.7-0.4,1-0.7h0c0,0,0,0,0.1,0c0.1-0.1,0.3-0.1,0.4-0.1c0,0,0.1,0,0.1,0
						c-0.2,0.1-0.5,0.2-0.7,0.3c-0.1,0-0.2,0.1-0.3,0.2c-0.2,0.1-0.3,0.2-0.4,0.4c0.2,0,0.3-0.2,0.5-0.2c0.2-0.1,0.3-0.2,0.5-0.2
						c0.1,0,0.2-0.1,0.3-0.1c0.1,0,0.1,0,0.2,0h0.2c0.2,0,0.4,0,0.5-0.1c-0.1-0.2-0.4-0.1-0.5-0.2c0.1-0.1,0.2-0.1,0.2-0.1
						c0.1,0,0.2,0,0.4,0.1c0.2,0,0.3,0,0.5,0.1c0.1,0.1,0.2,0.2,0.2,0.3c0,0,0.1,0,0.1,0.1c0,0.1,0.1,0.3,0.1,0.4c0,0,0,0.1,0,0.1
						c0,0.1,0.1,0.2,0.1,0.3v0c0,0.1,0,0.1,0,0.2c0,0,0,0.1,0,0.1c-0.1,0.1-0.2,0.2-0.2,0.4c0,0,0,0,0,0c0,0,0,0-0.1,0h0
						c-0.1,0-0.1,0.2-0.1,0.2c0,0,0-0.1-0.1-0.1c-0.1,0-0.3,0.1-0.4,0.1c-0.2-0.1-0.4-0.1-0.5-0.4c-0.2-0.1-0.4-0.2-0.6-0.2H52
						c-0.6,0-1,0.5-1.3,0.9c-0.4,0.5-0.7,1-0.7,1.8c0,0.1,0,0.1,0,0.2c0,0.3,0.1,0.5,0.4,0.6c0.1,0.1,0.3,0.1,0.4,0.1
						c0.1,0,0.2,0,0.3,0c0.1,0,0.1,0,0.2,0c0.4-0.1,0.9-0.3,1.2-0.5c0.1-0.1,0.2-0.3,0.2-0.5h0c-0.1,0-0.2,0-0.3,0.1
						c-0.1,0-0.2,0-0.3,0c-0.1,0-0.2,0.2-0.4,0.2h-0.1c-0.1,0-0.2,0-0.3-0.1c-0.1-0.1-0.1-0.2-0.2-0.3c-0.1-0.1-0.3-0.1-0.3-0.3
						c0,0,0-0.1,0-0.1c0-0.3,0.2-0.5,0.4-0.6c0,0,0-0.1,0-0.1c0-0.4,0.5-0.4,0.9-0.6v0c0,0.1-0.2,0.1-0.3,0.3c0.1,0,0.2,0.1,0.4,0.1
						c0.3,0,0.7-0.1,1-0.1c0.1,0,0.2,0,0.4,0c0,0.1-0.1,0.1-0.2,0.1h-0.2c-0.2,0-0.3,0-0.5,0h-0.3c-0.2,0-0.3,0-0.3,0.2
						c0.1,0,0.2,0.1,0.3,0.1c0.2,0,0.5-0.1,0.7-0.1c0.4,0,0.8,0,1.1-0.2c0-0.1-0.1-0.1-0.1-0.1c0,0-0.1,0-0.1,0c-0.1,0-0.1,0-0.1,0
						c0.1-0.1,0.3-0.1,0.4-0.1c0.3-0.1,0.6-0.1,0.9-0.2c0,0-0.1,0.1-0.1,0.2H55c0.1,0,0.2-0.1,0.4-0.1h0.1c-0.1,0.1-0.3,0.1-0.4,0.3
						h0c0,0,0.1-0.1,0.2-0.1c0,0,0,0,0,0v0c0,0-0.1,0.1-0.1,0.2c0,0,0,0,0,0.1c0,0.1,0,0.1,0.1,0.2h0c0,0,0,0,0.1,0h0v0
						c0,0.1-0.1,0.1-0.2,0.2c0,0.1,0,0.2,0,0.2c-0.1,0.2-0.3,0.2-0.4,0.4c-0.1,0-0.3,0-0.4,0c-0.2,0-0.4,0-0.5,0c0,0.1,0,0.2,0,0.3
						c0,0,0,0,0,0.1c0,0.1-0.1,0-0.1,0.1c0,0.1-0.1,0.1-0.1,0.2v0c-0.1,0.1-0.1,0.4-0.2,0.6c0,0.2-0.1,0.4-0.1,0.7
						c0,0.1,0,0.2,0,0.2c0,0.1,0,0.2,0.1,0.3C53.3,158.4,53.3,158.7,53,158.7L53,158.7z M55.1,154.2
						C55.1,154.2,55.1,154.2,55.1,154.2c0-0.1,0.1-0.1,0.1-0.1c0,0,0,0,0.1,0C55.2,154.1,55.2,154.2,55.1,154.2z"/>
					<path class="st0" d="M61.4,158c0,0,0,0.1,0,0.1c-0.1,0.3-0.4,0.5-0.7,0.6c-0.1-0.1-0.1-0.1-0.3-0.1c-0.7-0.8-1.3-1.7-1.9-2.5
						c-0.1,0-0.1,0.1-0.2,0.1h0c-0.1,0-0.2,0-0.3,0.1c0,0-0.1,0-0.1,0c-0.2,0-0.3,0.3-0.4,0.5c-0.1,0.2-0.1,0.4-0.2,0.5
						c-0.2,0.4-0.2,0.9-0.4,1c-0.1,0-0.2,0.1-0.3,0.1c0,0,0,0-0.1,0c-0.1,0-0.1-0.1-0.3-0.1c0-0.1-0.1-0.2-0.2-0.2
						c-0.1-0.1-0.1-0.3-0.2-0.4v0c0,0,0,0,0-0.1v0c0-0.1,0-0.1-0.1-0.1c0,0-0.1,0-0.1,0c0,0,0,0,0,0c0-0.1,0.1-0.1,0.2-0.2
						c0.2-0.2,0.4-0.4,0.5-0.6c0,0,0,0,0,0.1c0,0.1,0,0.2,0,0.2c0,0,0,0,0,0.1c0.4-0.3,0.6-0.9,0.8-1.5h0c-0.1,0-0.1,0.1-0.1,0.1
						c-0.2,0.2-0.2,0.6-0.4,0.8c0,0-0.1-0.1-0.1-0.1c0-0.1,0-0.1,0.1-0.2c0-0.1,0.1-0.2,0.2-0.2c0,0,0-0.1,0-0.1
						c0.2-0.2,0.2-0.6,0.4-0.8c0,0,0-0.1,0-0.1c0-0.1,0.1-0.2,0.1-0.3c0,0,0,0,0-0.1h0c-0.1,0-0.1,0.1-0.2,0.2
						c-0.1,0-0.1,0.1-0.2,0.1c-0.2,0-0.4-0.1-0.5-0.2c-0.3,0-0.5-0.3-0.5-0.6v0c0-0.1,0-0.1,0-0.2v0c0-0.1-0.1-0.2-0.1-0.4
						c0,0,0-0.1,0-0.1c0-0.1,0.2-0.4,0.3-0.5c0.1-0.1,0.1-0.1,0.2-0.2c0-0.1,0.1-0.2,0.2-0.2h0c0,0.1-0.1,0.2-0.1,0.3
						c0,0,0,0.1,0,0.1c0.2-0.1,0.3-0.3,0.7-0.3h0c-0.1,0.2-0.3,0.1-0.3,0.3c0,0,0,0.1,0,0.1c0.3-0.1,0.5-0.2,0.7-0.4
						c0.5-0.2,1-0.4,1.4-0.6c-0.1,0-0.1,0-0.2,0c-0.1,0-0.3,0.1-0.4,0.1c-0.2,0.1-0.3,0.1-0.6,0.2c0.3-0.2,0.7-0.3,1-0.4
						c0.3-0.1,0.7-0.2,1.1-0.2c0,0,0.1,0,0.1,0c0.9,0.1,1.7,0.7,1.7,1.7v0.1c0,0.7-0.4,1.1-0.8,1.4c-0.1,0.1-0.2,0.2-0.4,0.2v0
						c0-0.1,0.1-0.1,0.1-0.1c0.1-0.1,0.4-0.3,0.5-0.4h0c-0.3,0-0.5,0.3-0.8,0.4c-0.2,0.1-0.5,0.1-0.6,0.4c0,0,0.1,0,0.1,0
						c0.1,0,0.2-0.1,0.4-0.1c0,0,0,0,0.1,0c-0.1,0.2-0.4,0.2-0.5,0.3c0.1,0.1,0.2,0.3,0.3,0.4c0.1,0.1,0.2,0.2,0.3,0.4
						c0,0,0.1,0.1,0.2,0.1c0.1,0.1,0.2,0.4,0.5,0.4c0.1-0.1,0-0.3,0.1-0.5c0.1,0.1,0,0.5,0.1,0.6c0-0.2,0-0.5,0-0.7
						c0-0.1,0-0.2,0-0.3c0.1,0.2,0,0.6,0.1,0.9c0,0.1,0.1,0.2,0.1,0.3c0-0.1,0-0.3,0-0.4c0.1,0.4,0.1,0.7,0.3,1
						C61.4,157.8,61.4,157.9,61.4,158L61.4,158z M57.2,152.6c-0.1,0-0.1,0.1-0.2,0.1c0,0,0,0,0,0c0-0.1,0.2-0.1,0.2-0.2
						C57.2,152.5,57.2,152.5,57.2,152.6L57.2,152.6L57.2,152.6z M59.4,154.5c0.3-0.1,0.6-0.2,0.9-0.4c0.1-0.1,0.2-0.2,0.2-0.4
						c0,0,0,0,0-0.1c-0.1-0.3-0.5-0.3-0.9-0.3c-0.1,0-0.2,0-0.2,0c-0.3,0-0.6,0.2-0.9,0.3c-0.2,0.1-0.5,0.2-0.7,0.4
						c0.1,0,0.2,0,0.3,0.1c0.1,0.3,0.4,0.5,0.5,0.9C58.8,154.7,59.1,154.6,59.4,154.5z M61.2,156.5
						C61.2,156.5,61.2,156.5,61.2,156.5c0,0.2,0,0.2,0,0.3c0,0,0-0.1,0-0.1C61.1,156.6,61.1,156.5,61.2,156.5L61.2,156.5z"/>
					<path class="st0" d="M66.4,157.5c-0.3,0-0.5,0.3-0.7,0.5c-0.2,0.2-0.6,0.2-0.8,0.4c0.1,0,0.1,0,0.2,0c0.3,0,0.7-0.4,1-0.4
						c-0.3,0.4-0.9,0.6-1.5,0.6c-0.4,0-0.7-0.1-1.1-0.2c-0.9-0.4-1.7-1.2-1.8-2.3c0-0.1,0-0.2,0-0.4c0-0.3,0-0.6,0.1-0.8
						c0.1-0.4,0.2-0.7,0.4-0.8v0c0,0.1-0.1,0.2-0.1,0.3c0,0,0,0.1,0,0.1c0.1-0.2,0.2-0.3,0.3-0.5c0,0,0-0.1-0.1-0.1
						c-0.1,0-0.1,0.1-0.2,0.1c0,0,0-0.1,0-0.1c0-0.1,0.1-0.2,0.1-0.3c0.2-0.3,0.5-0.7,0.8-0.9v0c0,0-0.1,0.1-0.1,0.2
						c-0.2,0.2-0.5,0.4-0.5,0.8c0.2-0.1,0.2-0.2,0.3-0.3c0.4-0.4,0.9-0.7,1.4-1c0,0-0.1-0.1-0.1-0.1c-0.1,0-0.3,0.1-0.4,0.1h0
						c0.2-0.2,0.4-0.3,0.7-0.3c-0.1-0.2-0.3-0.2-0.4-0.3c0.2,0,0.4,0.2,0.6,0.2c-0.1-0.1-0.2-0.1-0.2-0.2c0.2,0.1,0.4,0.2,0.6,0.2
						c0,0,0-0.1,0-0.1h0c0.1,0,0.2,0,0.2,0c0.2,0.1,0.2,0.4,0.4,0.5c0.1,0.1,0.2,0.1,0.2,0.1c0.1,0.1,0.2,0.3,0.4,0.4
						c0.5,0.6,0.9,1.6,0.9,2.7v0c0,0.8-0.4,1.8-0.8,2.2c0,0-0.1,0.1-0.1,0.1C66.3,157.7,66.4,157.7,66.4,157.5L66.4,157.5z
						 M66.3,155c0-0.7-0.3-1.5-0.7-1.8c-0.1,0.2-0.1,0.4-0.3,0.4c0,0-0.1,0-0.1,0c-0.1,0-0.1,0-0.2,0h0c-0.4,0.1-0.7,0.3-0.9,0.5
						c-0.3,0.4-0.6,0.9-0.7,1.5c0,0.1,0,0.2,0,0.4c0,0.4,0.1,0.7,0.3,1c0.2,0.3,0.6,0.5,1.1,0.5c0.1,0,0.1,0,0.2,0
						c0.2,0,0.5-0.2,0.6-0.3C65.9,156.8,66.3,155.8,66.3,155L66.3,155z M63.5,152.6C63.5,152.6,63.5,152.5,63.5,152.6
						c0-0.1,0.1-0.2,0.1-0.2c0,0,0.1,0,0.1,0.1C63.7,152.5,63.6,152.5,63.5,152.6z"/>
					<path class="st0" d="M70.4,158.5c-0.1,0-0.1,0-0.2,0c0,0-0.1,0-0.1,0c0,0-0.1,0-0.2-0.1c-0.5-0.1-0.8-0.3-1.1-0.6
						c-0.3-0.2-0.5-0.5-0.6-0.9c0.1,0,0.1,0.1,0.2,0.2c0,0.1,0.1,0.1,0.2,0.2c0.1,0.1,0.2,0.3,0.4,0.3c-0.1-0.3-0.4-0.5-0.5-0.7
						c-0.1-0.2-0.2-0.5-0.3-0.8c0-0.1,0-0.3-0.1-0.3c-0.1,0-0.1,0.1-0.1,0.2c0,0.1,0,0.1,0,0.2v0h0c-0.1,0-0.1-0.1-0.1-0.1
						c0-0.1,0-0.2,0-0.3c0-0.3,0-0.6,0.1-0.8c0-0.1,0.1-0.1,0.1-0.2c0.1-0.3,0.1-0.6,0.2-0.8c-0.1-0.1-0.2-0.4-0.2-0.6
						c0-0.1,0-0.2,0-0.3c0-0.1,0.2-0.2,0.2-0.4v0c0-0.1,0-0.3,0-0.5V152c0-0.1,0-0.2,0.1-0.3c0,0,0,0,0,0v0.1c0,0.3,0,0.5,0.1,0.7h0
						c0,0,0,0,0,0h0v-0.1c0-0.1,0-0.3,0-0.4c0,0,0-0.1,0-0.1c0.1,0.1,0.1,0.3,0.2,0.4c0.1,0,0.1-0.1,0.1-0.1c0,0,0-0.1,0-0.1
						c0,0,0,0,0,0c0,0,0.1,0.1,0.1,0.1h0c0.2,0,0.3-0.2,0.4-0.2h0c0.1,0,0.3,0.1,0.4,0.2c0.3,0.1,0.5,0.3,0.6,0.5c0,0.1,0,0.2,0,0.3
						c0,0.1,0.1,0.1,0.1,0.1c0.1,0.1,0.1,0.3,0.1,0.5c0,0-0.1,0.1-0.1,0.2c0,0,0,0,0,0.1h0c-0.1,0-0.1,0.1-0.1,0.1
						c-0.1,0-0.2,0.1-0.3,0.2c-0.1,0.1-0.1,0.2-0.3,0.2c0,0,0,0,0,0c0,0,0,0,0,0c-0.1,0-0.1,0-0.1,0.1c0,0.1-0.1,0.1-0.1,0.2
						c-0.2,0-0.2,0.2-0.3,0.3c0,0.1-0.1,0.1-0.1,0.2h-0.1c-0.1,0.2-0.2,0.6-0.2,0.9c0,0.4,0.1,0.8,0.3,1c0.1,0.1,0.1,0.1,0.2,0.2
						c0.1,0.1,0.2,0.1,0.2,0.2c0.1,0.1,0.4,0,0.5,0.1c0,0,0.1,0,0.1,0c0,0,0.1,0,0.1,0c0.1-0.1,0.3-0.1,0.4-0.2
						c0.3-0.2,0.6-0.5,0.8-0.9v0c0,0,0,0,0,0h0c0.2-0.8,0.6-1.7,0.6-2.7v0c0-0.2-0.2-0.4-0.2-0.6c0-0.1,0-0.1,0-0.2
						c0-0.1,0-0.2,0-0.3c0.2-0.2,0.3-0.6,0.3-1c0.1,0.1,0.1,0.4,0.1,0.5c0,0,0-0.1,0-0.1c0-0.1,0-0.1,0-0.2c0,0,0-0.1,0-0.1
						c0.1,0.1,0.1,0.4,0.3,0.4c0,0,0,0,0,0c0,0,0-0.1,0-0.1c0,0,0,0,0,0c0.2,0.2,0.3,0.5,0.4,0.7c-0.1,0.4-0.1,0.9-0.1,1.4
						c-0.1-0.1-0.1-0.3-0.1-0.4c-0.1,0.2-0.1,0.4-0.1,0.7v0.5c0,0.3-0.1,0.6-0.1,0.9c0,0.1,0,0.1,0,0.2c0,0.1,0,0.1,0,0.2
						c0.2-0.2,0.2-0.7,0.3-1.1c0-0.1,0-0.3,0.1-0.3c0,0.5-0.1,0.9-0.2,1.3c0,0.1-0.1,0.3-0.1,0.4c-0.1,0.1-0.1,0.3-0.1,0.4
						c-0.1,0.2-0.3,0.3-0.3,0.5c-0.1,0.2-0.3,0.4-0.5,0.6c-0.2,0.1-0.5,0.3-0.8,0.4C71,158.4,70.7,158.5,70.4,158.5L70.4,158.5z
						 M68.1,156.6c-0.1,0-0.1-0.1-0.1-0.2c0,0,0-0.1,0-0.1C68.1,156.4,68,156.5,68.1,156.6L68.1,156.6z M72.9,152
						C72.9,152,72.9,151.9,72.9,152c-0.1-0.1-0.1-0.1,0-0.1C72.9,151.8,72.9,151.9,72.9,152L72.9,152z"/>
					<path class="st0" d="M79.1,155.3c0.3,0,0.4-0.2,0.7-0.3c-0.1,0.3-0.4,0.3-0.7,0.4c-0.1,0.1-0.2,0.1-0.4,0.2
						c-0.1,0.1-0.2,0.1-0.4,0.1c-0.3,0.1-0.6,0.3-0.9,0.3c-0.2,0-0.3,0.1-0.5,0.1c-0.2,0-0.3,0.1-0.5,0.1c-0.1,0-0.1,0-0.2,0
						c-0.1,0.2-0.2,0.7-0.2,1c0,0.4,0,0.8-0.2,1.1c-0.1,0.1-0.2,0.1-0.2,0.2c0,0,0,0-0.1,0c-0.1,0-0.2-0.1-0.3-0.1
						c-0.1,0-0.2-0.1-0.2-0.1c-0.1-0.1-0.1-0.2-0.2-0.3v0c0-0.1-0.1-0.2-0.1-0.3c0,0,0.1-0.1,0.1-0.1c0-0.1-0.2-0.1-0.3-0.2
						c0.2-0.1,0.4-0.1,0.5-0.2c0.1-0.1,0.1-0.4,0.3-0.5c0,0.1-0.1,0.2-0.1,0.4c0,0,0,0.1,0,0.1c0.1-0.1,0.2-0.2,0.2-0.4
						c0.1-0.4,0.2-0.9,0.3-1.3c-0.2,0.2-0.2,0.6-0.4,0.9c0,0,0-0.1,0-0.1c0-0.2,0.1-0.4,0.2-0.6c0-0.2,0.1-0.3,0.1-0.5
						c0.1-0.2,0.1-0.5,0.1-0.7c0-0.1,0-0.2,0-0.2c0-0.1-0.1-0.2-0.1-0.4c-0.2,0.1-0.3,0.2-0.5,0.4c0,0.1,0,0.2-0.1,0.2
						c-0.1,0.1-0.2,0.2-0.4,0.2c-0.1,0-0.3-0.1-0.4-0.1h-0.1c-0.3,0-0.5-0.2-0.5-0.5c0-0.1,0-0.2,0.1-0.3c0,0,0-0.1,0-0.1
						c0-0.2,0-0.3,0.1-0.4c0.1-0.1,0.2-0.1,0.3-0.2c0.2-0.2,0.2-0.3,0.4-0.4c0.1-0.2,0.2-0.3,0.4-0.4v0c0,0-0.1,0.1-0.1,0.2
						c-0.1,0.1-0.1,0.1-0.2,0.2c0,0,0,0,0,0c0.1-0.1,0.2-0.2,0.3-0.3c0,0.1-0.1,0.2-0.1,0.3c0.1,0,0.1-0.2,0.2-0.2c0,0,0,0.1,0,0.1
						c0.2,0,0.4-0.2,0.6-0.2c0,0,0.1,0,0.1,0c-0.2,0.2-0.5,0.2-0.6,0.5h0c0.2,0,0.3-0.1,0.5-0.2c0.5-0.3,1.1-0.5,1.7-0.6
						c0-0.1-0.1-0.1-0.2-0.1c-0.1,0-0.1,0-0.1,0c-0.1,0-0.3,0.1-0.4,0.1c0,0,0,0,0,0c0.2-0.2,0.6-0.3,0.9-0.3c0.1,0,0.1,0,0.2,0
						c0.1,0,0.3,0,0.4,0h0.6c0.8,0.1,1.5,0.7,1.6,1.6c0,0.1,0,0.1,0,0.2c0,0.4-0.1,1-0.4,1.1c0-0.1,0.1-0.2,0.1-0.4c0,0,0-0.1,0-0.1
						c-0.2,0.1-0.2,0.3-0.4,0.5c-0.1,0.1-0.2,0.2-0.3,0.3C79.2,155.1,79.1,155.1,79.1,155.3L79.1,155.3z M76.5,152.2
						c-0.1,0-0.1,0.1-0.2,0.1c0,0,0,0-0.1,0v0C76.2,152.2,76.3,152.1,76.5,152.2C76.4,152.1,76.5,152.1,76.5,152.2L76.5,152.2z
						 M78.9,154.3c0.2-0.3,0.5-0.4,0.6-0.8c-0.1-0.2-0.4-0.4-0.7-0.5c-0.1,0-0.2,0-0.3,0c-0.7,0-1.4,0.1-1.8,0.4
						c0.2,0.1,0.2,0.3,0.3,0.5v0c0,0.2,0,0.3,0,0.4c0,0,0,0.1,0,0.1c-0.1,0.2-0.3,0.3-0.3,0.5c0.3,0,0.6-0.1,0.9-0.2
						c0.1,0,0.2,0,0.3-0.1c0.1,0,0.2-0.1,0.3-0.1c0.1,0,0.1-0.1,0.2-0.1c0.1-0.1,0.2-0.1,0.3-0.2H78.9z"/>
				</g>
				<g>
					<path class="st0" d="M36.3,146.4c0-0.5,0.5-0.5,0.6-0.9h-0.2c-0.7,0-1.3,0.5-1.9,0.9c-0.3,0.2-0.6,0.4-1,0.6
						c-0.6,0.3-1.2,0.3-1.5,0.9c0,0.1,0.1,0.2,0.2,0.2c0.1,0,0.3-0.1,0.4-0.1c0.7-0.2,1.2-0.5,1.9-0.5c-0.6,0.4-1.2,0.6-1.9,0.9
						c-0.6,0.2-0.9,0.4-1.5,0.6c-0.5,0.1-1.1,0.2-1.6,0.2c-0.7,0-1.3-0.1-1.8-0.3c-0.6-0.3-1-0.9-1.6-1.3c-0.2-0.1-0.4-0.1-0.5-0.3
						c-0.2-0.2-0.3-0.5-0.6-0.7c-0.2-0.6-0.4-1.1-0.7-1.5v-0.2c0-0.1-0.1-0.1-0.2-0.2c-0.3-1-0.4-2-0.4-3.1c0-1.8,0.4-3.6,1.1-4.9
						c0.6-1.2,1.2-2.3,2-2.9c0.1-0.1,0.3-0.1,0.5-0.2c0.4-0.5,1.1-0.9,1.9-1.3c0.7-0.4,1.4-0.8,2.3-0.9c0.2,0,0.6,0,0.9,0h0.1
						c0.4,0,0.9,0.1,1,0.4h-0.1c-0.4,0-0.8-0.1-1.3-0.1h-0.1c-0.8,0.1-1.6,0.3-1.9,0.8h0.1c0.4,0,0.8-0.2,1.3-0.3c0.1,0,0.3,0,0.4,0
						c1,0,1.8,0.5,2.5,0.8c0-0.1,0.2-0.1,0.3-0.2v-0.1c0-0.4-0.5-0.3-0.7-0.7h0c0.5,0,0.8,0.3,1,0.6c1,1.1,1.5,3.1,1.6,5
						c0,0,0,0.1,0,0.1s-0.1-0.1-0.1-0.1c-0.3,0.4-0.5,1-0.8,1.4c0,0,0-0.1,0-0.1c0-0.1,0-0.1,0-0.2c0,0,0,0,0,0
						c-0.3,0-0.4,0.5-0.5,0.6c0,0,0,0-0.1,0c0,0-0.1,0-0.1-0.1c0,0,0,0,0,0c0,0,0-0.1,0-0.1c-0.3,0-0.5,0.1-0.6,0.4
						c-0.7-0.3-1.3-0.4-1.8-0.9c-0.3-0.3-0.4-0.8-0.5-1.2c-0.4-0.5-0.4-1.4-1.3-1.4H31c-0.5,0-1.1,0.2-1.4,0.3
						c-1.3,0.5-2.8,2.3-3.3,3.5c-0.2,0.6-0.4,1.2-0.4,1.8c0,0.1,0,0.3,0,0.4c0,0.1-0.1,0.2-0.1,0.3c0,0.4,0.3,1,0.3,1.5v0.1
						c0.4,0.5,0.8,1,1.1,1.5c0.7,0.2,1.3,0.7,2.1,0.7c0.8,0,1.9-0.4,2.5-0.7c2.2-0.9,4.6-2.8,6.1-4.4c0.3-0.4,0.7-0.7,1.1-1.1
						c0.3-0.4,3-3.1,3.4-3.3v0c0,0.5-3.1,2.9-3.1,3.5c0.2-0.1,2-2.2,2.5-2.2c-0.2,0.6-2.5,2.5-2.5,3.3c0,0,0,0.1,0,0.1
						c0.3,0,1.7-2.2,2-2.3l0.1,0.1c0,0.3-1.7,2.1-1.7,2.5c0,0.1,0,0.2,0.1,0.3c0,0,0,0,0.1,0c0,0,1-1.5,1.1-1.5h0
						c0,0.1-0.8,1.5-0.8,1.6c0,0.4-0.6,1.2-0.6,1.6c0,0.1,0,0.2,0,0.4C38.5,144.6,37.5,145.7,36.3,146.4L36.3,146.4z M35.6,146.8
						c0-0.1-0.1-0.1-0.1-0.2v0c0.1,0,0.3-0.2,0.5-0.2c0.1,0,0.1,0,0.2,0.1C36.1,146.7,35.8,146.8,35.6,146.8L35.6,146.8z
						 M42.5,136.2c0,0,0-0.1,0-0.1c0-0.2,0.1-0.4,0.3-0.4c0,0,0.1,0,0.1,0.1C42.9,136,42.8,136.2,42.5,136.2z"/>
					<path class="st0" d="M53.9,149.1c-0.4,0-0.6-0.4-1-0.4c-0.2-0.7-2-1.3-2.3-1.8c0.5,0.1,1.2,0.6,1.7,0.7
						c-0.7-0.8-2.8-1.4-3.4-2.1h0.1c0.3,0,0.5,0.2,0.7,0.3c0.4,0.2,1.7,0.6,2.1,0.9c-0.2-0.4-1.9-0.8-2.2-1.2c0.1,0,0.1,0,0.2,0
						c0.5,0,1.9,0.9,2.3,0.9c0.1,0,0.2,0,0.3-0.1c0-0.6-0.3-1-0.4-1.6c-0.2-0.7-0.3-1.4-0.7-1.7c-0.5,0-1,0-1.5,0
						c-0.9,0-1.7,0.3-2.5,0.4c0.2-0.3,0.7-0.3,1.1-0.4c0.5-0.1,0.9-0.1,1.6-0.2c0.2,0,0.5-0.1,0.7-0.4c-0.1-0.1-0.3-0.2-0.6-0.2
						h-0.2c-0.5,0-1.1,0.2-1.7,0.3c-1,0.1-1.8,0-2.1,0.6c0.1,0.2,0.5,0.1,0.7,0.2c-0.1,0.2-0.4,0.2-0.6,0.3l-0.7,0.2
						c-0.8,1.2-1.7,2.4-2,4.2c-0.5,0.1-1,0.3-1.4,0.4c-0.3,0-0.5-0.5-0.7-0.5c-0.1,0-0.2,0-0.2,0.1c0,0,0-0.1,0-0.2
						c0-0.1,0-0.2,0-0.2c-0.2-0.3-0.3-0.5-0.5-0.8c0-0.1,0-0.1,0-0.2c-0.2-0.2-0.3-0.5-0.3-0.9c0-0.3,0-0.6,0.1-0.9h0
						c0.1,0,0.1,0.1,0.2,0.1c0.5-0.7,0.9-1.4,1.4-2.2c0.6-1,1.2-2.1,1.9-3.1c0.5-0.8,0.8-1.7,1.3-2.4v-0.2c0.3-0.1,0.2-0.7,0.5-0.7
						c0,0,0.1,0,0.1,0c-0.3,1.1-1.1,1.9-1.4,3.1h0c0.3,0,0.3-0.3,0.4-0.5c0.6-0.9,1.3-2,1.8-3.1c0.2-0.4,0.5-0.8,0.5-1.2
						c0-0.1,0-0.1,0-0.2h-0.1c-0.5,0-0.5,0.5-0.8,0.7c0-0.1,0-0.1,0-0.2c0-0.3,0.2-0.6,0.4-0.8v-0.1c0-0.5,0.6-1.1,0.6-1.5
						c0-0.1-0.1-0.3-0.1-0.3c0-0.1,0.2-0.2,0.2-0.4v0c0-0.2-0.2-0.1-0.3-0.2c0.1-0.2,0.3-0.2,0.4-0.3c0.3-0.2,0.5-0.6,0.8-0.8
						c0.2-0.1,0.5-0.1,0.7-0.2c0.2-0.1,0.3-0.3,0.5-0.3c0.1,0,0.2,0,0.3,0c0.4,0,0.8,0.2,1.1,0.5c0.1,0,0.1,0,0.2,0h0
						c0.1,0.7,0.9,1.2,1,1.8v0.1c0,0.1,0,0.2,0,0.3c0,0.1,0.1,0.2,0.1,0.3c-0.1,0.6-1.3,0.7-1.4,1.5c0.1,0.2,0.1,0.4,0.2,0.6
						c0.1,0.2,0.2,0.4,0.3,0.6c0.1,0.2,0,0.4,0.1,0.6c0.2,0.5,0.5,1,0.7,1.5c0.1,0.5,0.3,0.9,0.5,1.3c0.1,0.3,0.3,0.5,0.4,0.9
						c0,0.1,0.1,0.1,0.2,0.2c0.2,0.9,0.4,1.8,0.8,2.3c0.1,0.8,0.5,1.2,0.6,2c-0.6-0.3-0.5-1.3-1.1-1.7c-0.1,0-0.1,0.1-0.1,0.2
						s0,0.1,0,0.2c0,0.4,0.3,0.8,0.5,1.2c0.2,0.4,0.3,0.9,0.5,1.2c0.1,0.1,0.2,0.3,0.4,0.3c0,0,0.1,0,0.1,0c0-0.4-0.3-0.6-0.3-1
						c0.7,0.4,1,1.2,1,2.1c0,0.2,0,0.5-0.1,0.7c-0.2,0.1-0.2,0.4-0.4,0.6C54.7,148.8,54.2,149.1,53.9,149.1L53.9,149.1z M49.3,136.6
						c-0.6,0.7-1,1.6-1.4,2.5c-0.3,0.4-0.6,0.7-0.8,1.2c1.2,0,2.3-0.3,3.5-0.5C50.3,138.6,49.8,137.6,49.3,136.6z"/>
					<path class="st0" d="M68.8,146.5c-0.6,0.9-1.6,1.4-2.8,1.6v0c0-0.3,0.5-0.2,0.5-0.5c-0.2,0-0.4,0-0.6,0c-0.7,0-1.5,0.1-2.2,0.2
						c-0.1,0-0.3,0-0.4,0h-0.5c-0.4,0-0.7,0-1,0.2c0.2,0.3,0.6,0.3,1,0.3c0.6,0,1.2-0.1,1.8-0.1c0.2,0,0.4,0,0.6,0.1
						c0,0.1-0.1,0.1-0.2,0.1h-0.2c-0.5,0.1-1,0.1-1.6,0.1h-1.1c-0.4,0-0.8,0-1.1,0h-0.5c-0.5,0-1,0-1.4,0.2c-0.1,0-0.3-0.1-0.5-0.1
						c-0.2,0-0.4,0-0.4,0.2c-1.4-0.3-1.3-2.1-2.1-3c0.1,0,0.2-0.2,0.2-0.3c0-0.1,0-0.2-0.2-0.2h-0.1c0.6-0.8,1.4-1.4,1.7-2.4
						c0,0,0.1,0.1,0.1,0.2c0,0.1-0.1,0.3-0.1,0.5c0,0.1,0,0.2,0.1,0.2h0c0.2,0,0.4-0.5,0.5-0.8c0.3-0.9,0.7-2.1,0.7-2.9
						c-0.6,0.2-0.5,1-0.8,1.5c-0.1,0-0.1-0.1-0.1-0.1c0-0.1,0.1-0.3,0.2-0.4c0-0.6,0.2-1.3,0.3-1.7v0c0-0.1,0.2,0,0.2-0.1v-0.5
						c0-0.1,0-0.3,0-0.4c-0.3-0.4-1-0.3-1.4-0.6c-0.1-0.4,0.2-0.9-0.1-1.1c-0.2,0-1.2,1-1.5,1c0,0,0,0,0,0c0-0.1,1.1-1,1.2-1.1
						c0,0-0.1,0-0.2,0c-0.4,0-1.4,1.1-1.8,1.2c0.1-0.3,1.1-1.2,1.3-1.3l0.6-0.5h-0.1c-0.8,0-2,1.6-2.8,1.9c0.3-0.5,1.9-1.9,2.4-2.3
						c0.3-0.2,0.7-0.4,0.7-0.7c0-0.1,0-0.2-0.1-0.3c0.3-0.3,0.6-0.8,0.9-1.1c0.1,0.1,0.3,0.1,0.4,0.1c0.6,0,1.2-0.5,1.8-0.5
						c0.1,0,0.2,0,0.3,0.1c-0.2,0.2-1,0.3-1,0.7c0,0.1,0,0.1,0.1,0.2c1.6-0.7,3.1-1.6,4.9-2.1c-0.1-0.1-0.2-0.2-0.3-0.2
						c-0.2,0-0.3,0.1-0.5,0.1c-0.3,0-0.5,0.1-0.8,0.2c-0.5,0.2-1,0.4-1.5,0.5c0.2-0.2,0.6-0.4,0.9-0.5c0.9-0.4,2.4-0.8,3.7-0.8
						c1,0,1.9,0.2,2.5,0.8c0.3,0.3,0.4,0.7,0.8,1c0.2,0.5,0.3,1.2,0.4,1.6v0.3c0,0.7-0.1,1.1-0.4,1.6c-0.3,0.2-0.3,0.7-0.7,0.8v0
						c0,0.2-0.3,0.3-0.3,0.5v0c-0.7,0.3-1,0.9-1.5,1.3l-0.4,0.1c0.3-0.7,1-1,1.4-1.7c-0.7,0.1-1.4,0.8-2,1.3
						c-0.3,0.2-0.5,0.4-0.5,0.8v0.1c1.8,1,3.8,1.9,4.3,4.2c-0.1,0.7,0,1.8-0.5,2.2v0C68.9,146.3,68.8,146.4,68.8,146.5L68.8,146.5z
						 M58,142.2c0,0-0.1,0-0.1,0V142c0-0.2,0.1-0.3,0.2-0.4c0.1,0,0.1,0.1,0.2,0.2v0C58.2,142,58,142,58,142.2L58,142.2L58,142.2z
						 M67.5,144.8c0-0.8-0.9-1.3-1.5-1.6c-0.2-0.1-0.3-0.2-0.5-0.3c-0.3-0.1-0.9-0.2-1.3-0.2c-0.4,0-0.7,0-1,0.1
						c-0.5,0.2-0.8,0.7-1.4,0.7h-0.1c-0.4-0.7-1.1-1-1.3-1.9c-0.3,0.2-0.2,0.6-0.3,1c0,0.2-0.2,0.3-0.2,0.6c0,0.1,0,0.3,0,0.5
						c0,0.2,0,0.3,0,0.5c-0.2,0.4-0.4,0.9-0.5,1.4c1.6,0.4,3.8,0.3,5.6,0.4c0.2,0,0.5,0.1,0.7,0.1h0.1
						C66.8,146,67.5,145.7,67.5,144.8L67.5,144.8z M64.9,137.1c0.9-0.7,2-1.4,2.4-2.6c-0.2-0.2-0.6-0.3-1-0.3c-0.2,0-0.4,0-0.6,0
						c-1.8,0.1-3.6,0.9-4.6,1.9c0.2,0.7,0.8,1.4,0.8,2.3c0,0.1,0,0.2,0,0.2c0,0.1-0.1,0.3-0.1,0.4v0c0.6,0,1.1-0.6,1.6-0.9
						L64.9,137.1z"/>
					<path class="st0" d="M82.6,146.4c0-0.5,0.5-0.5,0.6-0.9H83c-0.7,0-1.3,0.5-1.9,0.9c-0.3,0.2-0.6,0.4-1,0.6
						c-0.6,0.3-1.2,0.3-1.5,0.9c0,0.1,0.1,0.2,0.2,0.2c0.1,0,0.3-0.1,0.4-0.1c0.7-0.2,1.2-0.5,1.9-0.5c-0.6,0.4-1.2,0.6-1.9,0.9
						c-0.6,0.2-0.9,0.4-1.5,0.6c-0.5,0.1-1.1,0.2-1.6,0.2c-0.7,0-1.3-0.1-1.8-0.3c-0.6-0.3-1-0.9-1.6-1.3c-0.2-0.1-0.4-0.1-0.5-0.3
						c-0.2-0.2-0.3-0.5-0.6-0.7c-0.2-0.6-0.4-1.1-0.7-1.5v-0.2c0-0.1-0.1-0.1-0.2-0.2c-0.3-1-0.4-2-0.4-3.1c0-1.8,0.4-3.6,1.1-4.9
						c0.6-1.2,1.2-2.3,2-2.9c0.1-0.1,0.3-0.1,0.5-0.2c0.4-0.5,1.1-0.9,1.9-1.3c0.7-0.4,1.4-0.8,2.3-0.9c0.2,0,0.6,0,0.9,0h0.1
						c0.4,0,0.9,0.1,1,0.4h-0.1c-0.4,0-0.8-0.1-1.3-0.1h-0.1c-0.8,0.1-1.6,0.3-1.9,0.8h0.1c0.4,0,0.8-0.2,1.3-0.3c0.1,0,0.3,0,0.4,0
						c1,0,1.8,0.5,2.5,0.8c0-0.1,0.2-0.1,0.3-0.2v-0.1c0-0.4-0.5-0.3-0.7-0.7h0c0.5,0,0.8,0.3,1,0.6c1,1.1,1.5,3.1,1.6,5
						c0,0,0,0.1,0,0.1s-0.1-0.1-0.1-0.1c-0.3,0.4-0.5,1-0.8,1.4c0,0,0-0.1,0-0.1c0-0.1,0-0.1,0-0.2c0,0,0,0,0,0
						c-0.3,0-0.4,0.5-0.5,0.6c0,0,0,0-0.1,0c0,0-0.1,0-0.1-0.1c0,0,0,0,0,0c0,0,0-0.1,0-0.1c-0.3,0-0.5,0.1-0.6,0.4
						c-0.7-0.3-1.3-0.4-1.8-0.9c-0.3-0.3-0.4-0.8-0.5-1.2c-0.4-0.5-0.4-1.4-1.3-1.4h-0.1c-0.5,0-1.1,0.2-1.4,0.3
						c-1.3,0.5-2.8,2.3-3.3,3.5c-0.2,0.6-0.4,1.2-0.4,1.8c0,0.1,0,0.3,0,0.4c0,0.1-0.1,0.2-0.1,0.3c0,0.4,0.3,1,0.3,1.5v0.1
						c0.4,0.5,0.8,1,1.1,1.5c0.7,0.2,1.3,0.7,2.1,0.7c0.8,0,1.9-0.4,2.5-0.7c2.2-0.9,4-2.5,5.5-4.1c0.3-0.4,0.7-0.7,1-1.1
						c0.3-0.4,1.4-1.9,1.7-2.2v0c0,0.5-1.4,1.7-1.4,2.4c0.2-0.1,1-1.4,1.5-1.4c-0.2,0.6-1.4,1.7-1.4,2.5c0,0,0,0.1,0,0.2
						c0.3,0,0.8-1.4,1.2-1.5v0.1c0,0.3-0.8,1.3-0.8,1.7c0,0.1,0,0.2,0.1,0.3c0,0,0,0,0.1,0c0,0,0.6-1,0.7-1h0c0,0.1-0.4,1-0.4,1.1
						c0,0.4,0,0.8,0,1.3c0,0.1,0,0.2,0,0.4C84.7,144.6,83.7,145.7,82.6,146.4L82.6,146.4z M81.9,146.8c0-0.1-0.1-0.1-0.1-0.2v0
						c0.1,0,0.3-0.2,0.5-0.2c0.1,0,0.1,0,0.2,0.1C82.3,146.7,82.1,146.8,81.9,146.8L81.9,146.8z"/>
					<path class="st0" d="M88.3,136.5c0-0.2,0.2-0.2,0.4-0.3c0.1-0.2,0.2-0.4,0.4-0.4c0-0.4,0.5-0.5,0.5-0.8v0
						c-0.6,0.7-1.4,1.4-2.6,1.4c0.7-0.5,1.9-0.7,2.1-1.7c-0.3,0-0.5,0.3-0.8,0.4c-0.1,0-0.2,0-0.2,0c-0.9,0-1.6-0.8-1.7-1.6
						c0-0.2,0-0.5,0-0.7c0-0.5,0.1-1,0.3-1.3c0.1,0,0.2-0.1,0.3-0.2c0.3-0.2,0.5-0.4,0.7-0.5c0.1-0.1,0.5-0.2,0.7-0.2
						c0.1,0,0.3,0,0.3,0.2c-0.3,0.2-0.9,0.2-1,0.6c0,0.1,0.1,0.2,0.2,0.3c0.2-0.1,0.4-0.1,0.6-0.1c0.3,0,0.7,0.1,0.9,0.3
						c0.1,0,0.1-0.1,0.2-0.1c0-0.3-0.2-0.3-0.2-0.6c0.6,0.1,0.7,0.8,1,1.4c0.1,0.3,0.3,0.6,0.3,0.9v0.2
						C90.6,135.1,89.3,136.3,88.3,136.5L88.3,136.5z"/>
					<path class="st0" d="M94.1,148c-0.2,0-0.5,0-0.8,0c-0.4,0-0.7,0-0.8,0.4c0.2,0.5,1.2,0,1.5,0.5c-0.4,0-0.8,0.1-1.2,0.1
						c-1,0-2.1-0.3-2.1-1.2c0-0.1,0-0.2,0-0.4c0-0.1-0.1-0.1-0.1-0.2c0-0.1,0.1-0.2,0.1-0.3c-0.1-0.1-0.2-0.2-0.2-0.4
						c0-0.2-0.6-0.2-0.6-0.4V146c0-0.1-0.1-0.2-0.1-0.4c0-0.6,0.3-1.5,0.7-1.7c0.1-0.1,1-0.3,1.2-0.4c1.1-0.3,3.2-1.6,4.5-1.6
						c-0.9,0.3-2.7,1-3.3,1.7c0.7-0.1,1.9-1,2.7-1.1c-0.2,0.2-1.3,0.6-1.6,0.8c-0.2,0.1-0.7,0.2-0.8,0.6h0c0.2,0,0.8-0.4,1-0.4
						c0,0,0.1,0,0.1,0c-0.1,0.1-0.7,0.4-0.7,0.6v0c0,0.3,0.3,0.4,0.7,0.4c0.4,0,0.9-0.1,1.2-0.1c2.1-0.2,5,0,6.5-0.6
						c-0.3-0.4-0.8-0.6-1.3-0.8c-0.5-0.2-1-0.4-1.5-0.6c-1-0.3-1.8-0.9-2.7-1.4c-0.8-0.5-1.7-1-2.5-1.8c-0.9-0.9-1.6-1.9-1.6-3.5
						v-0.2c0-1.2,0.7-2.6,1.5-3.3c1-1,2.4-1.6,3.9-1.6c0.6,0,1.2,0.1,1.8,0.2c0.5,0.1,0.9,0.4,1.4,0.7c0.4,0.2,0.8,0.2,0.9,0.7
						c-0.6-0.1-0.8-0.6-1.5-0.6h-0.1c0,0.3,0.4,0.5,0.7,0.7c0.2,0.2,0.5,0.4,0.8,0.7c0.3,0.4,0.6,0.9,0.9,1.3
						c0.2,0.3,0.5,0.6,0.9,0.7c0,0,0-0.1,0-0.1c0-0.5-0.5-0.7-0.5-1.2v-0.1h0c0.2,0,0.4,0.4,0.6,0.7c0.2,0.3,0.4,0.6,0.6,0.9h0.3
						c-0.1,0.2-0.2,0.4-0.2,0.8h0c0,0,0.1,0,0.2,0c0,0,0,0,0.1,0v0c0,0.1-0.2,0.2-0.2,0.2c-0.1,0.1-0.4,0.7-0.4,0.9c0,0,0,0.1,0,0.1
						c0,0.1,0,0.2,0,0.4c0,0,0,0.1,0,0.1c-0.1,0.6-1.1,0.9-1.1,1.5c-0.1,0-0.1-0.1-0.1-0.2v-0.1h-0.1c-0.7,0-1.4-0.3-1.7-0.9
						c-0.3-0.6-0.4-1.2-0.7-1.7c-0.6-0.8-1.6-1.7-2.8-1.7h-0.2c-1,0-2.3,0.5-2.3,1.9c0,0.1,0,0.2,0,0.3c0.1,0.7,1,1.5,1.7,2
						c0.7,0.5,1.4,0.9,2.1,1.2c0.7,0.4,1.4,0.8,2.1,1c0.8,0.3,1.6,0.7,2.1,1.2c0.7,0.6,1.2,1.5,1.2,2.6c0,0.2,0,0.4-0.1,0.7
						c-0.1,0.1-0.3,0.3-0.3,0.5c0,0,0,0.1,0,0.1c-0.3,0.1-0.5,0.4-0.8,0.6c-0.3,0.2-0.6,0.3-0.8,0.5c-1.7,0.2-3.6,1-5.4,1.3
						c-0.5,0.1-0.9,0.2-1.4,0.2c-0.1,0-0.2,0-0.3,0c0.2-0.2,0.5-0.3,0.8-0.4c1-0.2,2.2-0.3,3-0.9c-0.2,0-0.3-0.1-0.5-0.1
						c-0.6,0-1.2,0.2-1.8,0.3c-0.8,0.1-1.7,0.2-2.5,0.2H94.1z M102.6,133.1c0-0.1,0-0.2,0.1-0.2c0.1,0,0.4,0.3,0.5,0.4
						c0,0.1-0.1,0.2-0.2,0.2C102.9,133.5,102.6,133.3,102.6,133.1L102.6,133.1z"/>
				</g>
				<path class="st0" d="M86.4,137.7c0,0,0-0.1,0-0.1c0-0.2,0.1-0.4,0.3-0.4c0,0,0.1,0,0.1,0.1C86.7,137.4,86.7,137.6,86.4,137.7z"
					/>
				<path class="st0" d="M50.3,146.8c-0.1,0-0.2,0-0.3-0.1c0-0.1,0.1-0.1,0.1-0.1c0.1,0,0.3,0.1,0.3,0.2
					C50.5,146.8,50.4,146.8,50.3,146.8z"/>
				<path class="st0" d="M93.4,143.5c0-0.2,0.1-0.3,0.3-0.3c0,0,0.1,0,0.2,0.1C93.8,143.5,93.6,143.5,93.4,143.5L93.4,143.5z"/>
			</g>
			<g>
				<path class="st1" d="M37.2,73.8c9.7-7.5-2.1-31.7-2.1-31.7s13.5,12,15.2,26.1c0.8,6.6-0.8,12.3-4.6,15.6c-4.2,3.6-11,4.4-16.8,3
					C16.7,83.8,4.7,68.1,0,52.2c0,0,5,8.2,12,14.5C19.3,73.1,29.1,80.1,37.2,73.8z"/>
				<path class="st1" d="M91.6,73.8c-9.7-7.5,2.1-31.7,2.1-31.7s-13.5,12-15.2,26.1c-0.8,6.6,0.8,12.3,4.6,15.6
					c4.2,3.6,11,4.4,16.8,3c12.1-3,24.1-18.7,28.8-34.7c0,0-5,8.2-12,14.5C109.4,73.1,99.6,80.1,91.6,73.8z"/>
				<g>
					<path class="st0" d="M64.3,69.1l-1.1-1c0,0,1.7,16.7-10.4,15.3C39.5,82,38.2,66.2,38.2,66.2L20.9,50.4c0,0,5.7,6.4,7.2,14l0,0
						c3,27,19.9,28.6,29.1,24.7C67.1,84.8,64.3,69.1,64.3,69.1z"/>
				</g>
				<g>
					<g>
						<path class="st1" d="M92.2,0C80,48.4,66.1,47.6,64.3,47.4v0c0,0,0,0-0.1,0c-0.1,0-0.1,0-0.1,0v0c-1.8,0.3-15.7,1-27.9-47.4
							c0,0,1.7,60,27.9,60.3v0c0,0,0.1,0,0.1,0c0,0,0.1,0,0.1,0v0C90.4,60,92.2,0,92.2,0z"/>
						<path class="st0" d="M64.3,34.4c0,0-10.7,0.6-18.2-15.4c0,0,5.7,21,18.2,21c12.5,0,18.2-21,18.2-21
							C75,34.9,64.3,34.4,64.3,34.4z"/>
						<g>
							<path class="st1" d="M62.6,115.6c4.5-6.8,9-19.1,20-16.2c11,2.9,7.9,22.2,7.9,22.2s5.2-9.9,1.3-22.9
								c-3.9-13-15.4-14.6-22.3-7.8c0,0-2.7,2.6-4.7,5.9c-4.4,7-7.7,17.4-18.7,14.6C35,108.3,38.2,89,38.2,89S32.9,99,36.9,112
								s15.4,14.6,22.3,7.8C59.2,119.8,61.1,118.1,62.6,115.6"/>
						</g>
						<path class="st0" d="M75.8,83.4c-10.2,1.1-10.6-10.6-10.4-14.3c4.5,0.1,22.7-1,40.2-24c5.5-7.2,8.1-16.2,8.1-16.2
							S100,59.7,64.3,59.7C28.7,59.7,15,28.9,15,28.9s2.6,9,8.1,16.2c17.4,23,35.7,24.1,40.2,24c0.1,3.6-0.2,15.4-10.4,14.3
							C39.5,82,38.2,66.2,38.2,66.2L20.9,50.4c0,0,5.7,6.4,7.2,14l0,0c3,27,19.9,28.6,29.1,24.7c4.7-2,6.5-6.5,7.2-10.8
							c0.7,4.2,2.6,8.8,7.2,10.8c9.1,3.9,26.1,2.3,29.1-24.7l0,0c1.5-7.6,7.2-14,7.2-14L90.5,66.2C90.5,66.2,89.2,82,75.8,83.4z"/>
					</g>
					<g>
						<path class="st0" d="M82.4,103.7c0,0-4.7-9.9-17.9-9.9v3.8c0,0,3.2-0.2,7.1,0.7C75.1,99.1,79.2,100.4,82.4,103.7z"/>
						<path class="st0" d="M64.5,97.6c0,0-6.1-0.2-9.8,5.1l-4.5-3.9c4.4-5,14.3-5,14.3-5"/>
						<circle class="st0" cx="54.8" cy="103.1" r="6.4"/>
					</g>
				</g>
			</g>
		</g>
		<g>
			<g>
				<linearGradient id="SVGID_1_" gradientUnits="userSpaceOnUse" x1="316.4955" y1="126.0319" x2="316.4955" y2="53.6838">
					<stop  offset="0.2" style="stop-color:#007E5C"/>
					<stop  offset="0.2018" style="stop-color:#098362"/>
					<stop  offset="0.2119" style="stop-color:#379A7F"/>
					<stop  offset="0.2233" style="stop-color:#62B09B"/>
					<stop  offset="0.2355" style="stop-color:#88C3B3"/>
					<stop  offset="0.2488" style="stop-color:#A8D3C8"/>
					<stop  offset="0.2634" style="stop-color:#C4E1D9"/>
					<stop  offset="0.28" style="stop-color:#DAECE7"/>
					<stop  offset="0.2994" style="stop-color:#EBF5F2"/>
					<stop  offset="0.3233" style="stop-color:#F6FBF9"/>
					<stop  offset="0.3568" style="stop-color:#FDFEFE"/>
					<stop  offset="0.45" style="stop-color:#FFFFFF"/>
					<stop  offset="0.4636" style="stop-color:#FEF8F0"/>
					<stop  offset="0.4899" style="stop-color:#FCE6C7"/>
					<stop  offset="0.5263" style="stop-color:#F8C886"/>
					<stop  offset="0.5709" style="stop-color:#F3A02E"/>
					<stop  offset="0.58" style="stop-color:#F2971B"/>
				</linearGradient>
				<path class="st2" d="M302.3,124.8c-3.2,0-5.7-1-7.3-3.1c-1.6-2-2-4.7-1.1-8c0.5-2.1,1.5-3.9,2.9-5.4c1.9-2.1,4.8-4,8.7-5.9
					c3.8-1.8,9.9-4,18.3-6.5l0.4-1.4c1-4,1-6.8,0.1-8.2c-1-1.4-2.8-2.1-5.4-2.1c-1.9,0-3.6,0.5-5.2,1.5c-2.2,1.4-3.7,3.3-4.7,5.8
					l-0.1,0.2c-0.7,1.7-1.7,4.2-4.2,4.5c-0.2,0-0.3,0-0.5,0c-1,0-1.7-0.4-2.4-1.3c-0.6-0.9-0.8-2.1-0.4-3.5c0.7-2.7,2.8-5.1,6.4-7.4
					c3.5-2.2,8-3.3,13.3-3.3c4.2,0,5.6,0.6,7.8,1.9c1.7,1,2.8,2.7,3.3,5c0.3,1.4,0,3.8-1.1,7.8l-3.6,14c-1.1,4.2-1.8,7.2-1.8,8
					c-0.1,1,0.1,1.4,0.3,1.5c0.2,0.2,0.5,0.3,0.9,0.3c0.5,0,0.9-0.1,1.3-0.3c0.7-0.3,5.8-4.1,8.5-6.1l1.1-0.8l1.9,0l-6.7,6
					c-5,4.6-7.1,6.1-10.5,6.1c-1.7,0-3-0.6-3.8-1.7c-0.7-1-1-1.9-0.6-3.9c-5.1,3.1-8.3,4.8-9.6,5.3
					C306.4,124.4,304.3,124.8,302.3,124.8z M322.9,99.2c-4.3,1.3-8.3,2.7-11.7,4.1c-3.3,1.4-5.9,2.8-7.5,4.3
					c-1.6,1.5-2.7,3.1-3.1,4.8c-0.6,2.2-0.2,3.9,1,5.3c1.2,1.4,2.8,2.1,4.9,2.1c2.8,0,7-1.5,12.5-4.6L322.9,99.2z"/>
				<path class="st3" d="M321,81c4,0,5.4,0.5,7.6,1.9c1.7,1,2.7,2.7,3.1,4.7c0.3,1.3,0,3.6-1.1,7.6l-3.6,14c-1,3.9-1.8,7.2-1.8,8.1
					c-0.1,0.9,0.1,1.5,0.4,1.8c0.3,0.3,0.7,0.5,1.2,0.5c0.5,0,1-0.1,1.5-0.3c0.8-0.4,7.2-5.1,9.6-6.9l0.8,0l-5.9,5.3
					c-4.9,4.5-6.9,6-10.3,6c-1.6,0-2.8-0.5-3.5-1.5s-1-2-0.4-4.4c-5.5,3.3-8.9,5.2-10.3,5.7c-2,0.8-4,1.1-6,1.1c-3.1,0-5.5-1-7-2.9
					c-1.5-2-1.9-4.5-1.1-7.7c0.5-2,1.5-3.8,2.8-5.2c1.9-2,4.7-4,8.6-5.8c3.8-1.8,10-4,18.5-6.6l0.4-1.6c1.1-4.1,1.1-7,0-8.5
					c-1-1.5-2.9-2.3-5.7-2.3c-2.1,0-3.8,0.6-5.4,1.5c-3,1.9-4.3,4.4-4.9,6c-0.6,1.6-1.6,4.1-4,4.4c-0.2,0-0.3,0-0.5,0
					c-1,0-1.6-0.4-2.1-1.1c-0.6-0.8-0.7-1.9-0.3-3.2c0.7-2.6,2.7-5,6.2-7.1C311.4,82.1,315.7,81,321,81 M323.4,98.6
					c-6.3,1.9-10.5,3.6-12.4,4.3c-3.4,1.4-6,2.8-7.6,4.3c-1.7,1.5-2.8,3.2-3.2,5c-0.6,2.3-0.2,4.1,1,5.6c1.3,1.5,3,2.2,5.1,2.2
					c2.9,0,7.2-1.6,12.8-4.7L323.4,98.6 M321,80.3c-5.4,0-9.9,1.1-13.5,3.4c-3.6,2.3-5.8,4.8-6.5,7.6c-0.4,1.6-0.2,2.9,0.5,3.8
					c0.5,0.6,1.2,1.4,2.7,1.4c0.2,0,0.3,0,0.5,0c2.8-0.3,3.9-3.1,4.5-4.7l0.1-0.2c1-2.5,2.5-4.3,4.6-5.6c1.5-1,3.1-1.4,5-1.4
					c2.5,0,4.2,0.7,5.1,2c0.6,0.9,1.1,3-0.1,7.9l-0.3,1.2c-8.3,2.5-14.4,4.7-18.2,6.5c-3.9,1.8-6.9,3.8-8.8,5.9
					c-1.4,1.6-2.5,3.4-3,5.6c-0.9,3.4-0.5,6.2,1.2,8.4c1.7,2.1,4.2,3.2,7.6,3.2c2.1,0,4.2-0.4,6.3-1.2c1.3-0.5,4.2-2.1,9-4.9
					c-0.2,1.6,0.2,2.5,0.8,3.4c0.8,1.2,2.2,1.9,4.1,1.9c3.8,0,6.1-1.8,10.8-6.2l5.9-5.3l1.5-1.3l-2,0l-0.8,0l-0.2,0l-0.2,0.1l-1,0.7
					c-2.3,1.7-7.9,5.8-8.5,6.1c-0.3,0.2-0.7,0.2-1.1,0.2c-0.4,0-0.6-0.1-0.7-0.2c0,0-0.2-0.2-0.1-1.2c0.1-0.8,0.7-3.8,1.8-8l3.6-14
					c1-4,1.4-6.5,1.1-7.9c-0.5-2.3-1.7-4.1-3.5-5.2C326.5,80.8,325,80.3,321,80.3L321,80.3z M306.3,119.4c-1.9,0-3.4-0.6-4.6-2
					c-1.1-1.3-1.4-2.9-0.9-5c0.4-1.6,1.4-3.2,3-4.6c1.6-1.4,4.1-2.9,7.4-4.2c3.2-1.3,7-2.7,11.1-3.9l-3.9,15.2
					C313.1,117.9,309.1,119.4,306.3,119.4L306.3,119.4z"/>
			</g>
			<g>
				<linearGradient id="SVGID_2_" gradientUnits="userSpaceOnUse" x1="168.7398" y1="126.0436" x2="168.7398" y2="54.1199">
					<stop  offset="0.2" style="stop-color:#007E5C"/>
					<stop  offset="0.2018" style="stop-color:#098362"/>
					<stop  offset="0.2119" style="stop-color:#379A7F"/>
					<stop  offset="0.2233" style="stop-color:#62B09B"/>
					<stop  offset="0.2355" style="stop-color:#88C3B3"/>
					<stop  offset="0.2488" style="stop-color:#A8D3C8"/>
					<stop  offset="0.2634" style="stop-color:#C4E1D9"/>
					<stop  offset="0.28" style="stop-color:#DAECE7"/>
					<stop  offset="0.2994" style="stop-color:#EBF5F2"/>
					<stop  offset="0.3233" style="stop-color:#F6FBF9"/>
					<stop  offset="0.3568" style="stop-color:#FDFEFE"/>
					<stop  offset="0.45" style="stop-color:#FFFFFF"/>
					<stop  offset="0.4636" style="stop-color:#FEF8F0"/>
					<stop  offset="0.4899" style="stop-color:#FCE6C7"/>
					<stop  offset="0.5263" style="stop-color:#F8C886"/>
					<stop  offset="0.5709" style="stop-color:#F3A02E"/>
					<stop  offset="0.58" style="stop-color:#F2971B"/>
				</linearGradient>
				<path class="st4" d="M148.1,123.1l0.4-1.6h1c2.5,0,5.8-0.7,7.4-2.1c1-0.9,1.9-3.2,2.9-6.8l12-46.6c0.8-3,1.1-5,0.9-6
					c-0.1-0.6-0.6-1.2-1.4-1.7c-1.1-0.6-3.5-1-5.1-1H165l0.4-1.6h24l-0.4,1.6h-0.3c-2.8,0-6.6,0.7-8.1,2.1c-1,0.9-2,3.2-2.9,6.8
					l-12,46.6c-0.8,3-1.1,5-0.9,6c0.1,0.6,0.6,1.2,1.4,1.7c1.1,0.6,5,1,6.8,1h0.5l-0.4,1.6H148.1z"/>
				<path class="st3" d="M188.9,56.2l-0.2,0.8c-2.7,0-6.7,0.7-8.3,2.2c-1.1,1-2.1,3.3-3,7l-12,46.6c-0.8,3.1-1.1,5.1-0.9,6.1
					c0.1,0.8,0.7,1.4,1.6,1.9c1.2,0.7,5.4,1.1,7,1.1l-0.2,0.8h-24.2l0.2-0.8h0.7c2.8,0,6-0.7,7.7-2.2c1-1,2-3.3,3-7l12-46.6
					c0.8-3.1,1.1-5.1,0.9-6.1c-0.1-0.8-0.7-1.4-1.5-1.9c-1.3-0.7-3.7-1.1-5.3-1.1h-0.7l0.2-0.8H188.9 M189.9,55.4h-1h-23.3h-0.6
					l-0.1,0.6l-0.2,0.8l-0.2,0.9h1h0.7c1.6,0,3.9,0.4,5,1c0.7,0.4,1.1,0.9,1.2,1.4c0.1,0.6,0,2.1-0.9,5.8l-12,46.6
					c-1.1,4.4-2.1,6-2.8,6.6c-1.3,1.2-4.2,2-7.2,2h-0.7h-0.6l-0.1,0.6l-0.2,0.8l-0.2,0.9h1h24.2h0.6l0.1-0.6l0.2-0.8l0.2-0.9h-1
					c-1.7,0-5.6-0.4-6.6-1c-0.7-0.4-1.1-0.9-1.2-1.4c-0.1-0.6,0-2.1,0.9-5.8l12-46.6c1.1-4.4,2.1-6,2.8-6.6c1.4-1.3,5.1-2,7.8-2h0.6
					l0.1-0.6l0.2-0.8L189.9,55.4L189.9,55.4z"/>
			</g>
			<g>
				<linearGradient id="SVGID_3_" gradientUnits="userSpaceOnUse" x1="199.4094" y1="126.063" x2="199.4094" y2="53.6652">
					<stop  offset="0.2" style="stop-color:#007E5C"/>
					<stop  offset="0.2018" style="stop-color:#098362"/>
					<stop  offset="0.2119" style="stop-color:#379A7F"/>
					<stop  offset="0.2233" style="stop-color:#62B09B"/>
					<stop  offset="0.2355" style="stop-color:#88C3B3"/>
					<stop  offset="0.2488" style="stop-color:#A8D3C8"/>
					<stop  offset="0.2634" style="stop-color:#C4E1D9"/>
					<stop  offset="0.28" style="stop-color:#DAECE7"/>
					<stop  offset="0.2994" style="stop-color:#EBF5F2"/>
					<stop  offset="0.3233" style="stop-color:#F6FBF9"/>
					<stop  offset="0.3568" style="stop-color:#FDFEFE"/>
					<stop  offset="0.45" style="stop-color:#FFFFFF"/>
					<stop  offset="0.4636" style="stop-color:#FEF8F0"/>
					<stop  offset="0.4899" style="stop-color:#FCE6C7"/>
					<stop  offset="0.5263" style="stop-color:#F8C886"/>
					<stop  offset="0.5709" style="stop-color:#F3A02E"/>
					<stop  offset="0.58" style="stop-color:#F2971B"/>
				</linearGradient>
				<path class="st5" d="M201,123.1l0.4-1.5h0.3c2.2,0,3.7-0.3,4.7-0.8c0.9-0.5,1.7-1.4,2.3-2.5c0.2-0.3,0.5-1.2,1.3-4.2l4.6-17.8
					c0.9-3.7,1.1-6.4,0.5-8c-0.6-1.6-2-2.3-4.4-2.3c-3.8,0-8.2,1.9-13,5.7l-5.8,22.5c-0.9,3.4-0.9,4.6-0.8,5
					c0.2,0.8,0.6,1.3,1.2,1.7c0.6,0.4,1.4,0.6,3.8,0.6h0.5l-0.4,1.5H177l0.4-1.5h2.2c1.7,0,2-0.3,2.6-1c0.1-0.2,0.3-0.3,0.5-0.5
					c1-1,1.9-3,2.7-5.9l3.9-15.4c1.3-5.2,2.1-8.9,2.2-9.9c0-1-0.1-1.6-0.5-1.9c-0.3-0.3-0.9-0.5-1.7-0.5c-0.6,0-1.2,0.2-2,0.5
					c-0.3,0.1-0.6,0.2-0.9,0.3l-0.4,0.1l-0.3-1.6l12.8-5.2h1.8l-2.1,8.1c6.3-5.2,12-7.9,16.8-7.9c0,0,0,0,0,0c0.3,0,1.5,0,2.3,0.4
					c2.5,1.2,3.9,3.4,4.4,7c0.2,2-0.1,4.8-1,8.4l-4.5,17.7c-0.7,2.5-0.9,4.3-0.7,5.1c0.2,0.7,0.5,1.2,1.1,1.5
					c0.6,0.4,1.1,0.6,3.4,0.6h0.5l-0.4,1.5H201z"/>
				<path class="st3" d="M199.9,81l-2.2,8.8c6.8-5.8,12.6-8.5,17.4-8.5c0,0,0,0,0,0c0.2,0,1.4,0,2.1,0.4c1.6,0.7,3.6,2.3,4.1,6.7
					c0.2,1.8-0.1,4.6-1,8.3l-4.5,17.7c-0.7,2.6-0.9,4.4-0.7,5.3c0.2,0.8,0.6,1.3,1.3,1.8c0.7,0.4,1.4,0.6,3.6,0.6l-0.2,0.8h-18.4
					l0.2-0.8h0.1c2.1,0,3.8-0.3,4.8-0.9c1-0.6,1.8-1.5,2.4-2.6c0.2-0.5,0.7-1.9,1.3-4.2l4.6-17.8c1-3.8,1.1-6.5,0.5-8.2
					c-0.6-1.7-2.2-2.6-4.8-2.6c-3.9,0-8.4,2-13.3,5.9l-5.8,22.7c-0.7,2.8-1,4.5-0.8,5.2c0.2,0.9,0.7,1.5,1.4,1.9
					c0.7,0.4,1.5,0.6,4,0.6l-0.2,0.8h-18.4l0.2-0.8h1.9c2.3,0,2.3-0.5,3.4-1.6c1.1-1.1,2-3.1,2.8-6.1l3.9-15.4
					c1.3-5,2.1-8.9,2.2-9.9c0-1.1-0.2-1.8-0.6-2.2c-0.4-0.4-1.1-0.6-1.9-0.6c-0.9,0-1.6,0.3-3,0.8l-0.2-0.9l12.4-5.1H199.9
					 M200.9,80.3h-1h-1.3h-0.1l-0.1,0.1l-12.4,5.1l-0.6,0.2l0.1,0.6l0.2,0.9l0.2,0.8l0.8-0.3c0.3-0.1,0.6-0.2,0.9-0.3
					c0.8-0.3,1.3-0.4,1.9-0.4c0.7,0,1.1,0.1,1.4,0.4c0.1,0.1,0.4,0.5,0.3,1.6c0,0.7-0.6,3.7-2.2,9.8l-3.9,15.4
					c-0.7,2.9-1.6,4.8-2.6,5.8c-0.2,0.2-0.4,0.4-0.5,0.5c-0.6,0.6-0.8,0.8-2.3,0.8h-1.9h-0.6l-0.1,0.6l-0.2,0.8l-0.2,0.9h1h18.4h0.6
					l0.1-0.6l0.2-0.8l0.2-0.9h-1c-2.3,0-3.1-0.2-3.7-0.5c-0.5-0.3-0.9-0.8-1.1-1.5c-0.1-0.2-0.2-1.1,0.8-4.8l5.8-22.4
					c4.7-3.7,8.9-5.6,12.6-5.6c2.2,0,3.6,0.7,4.1,2.1c0.6,1.5,0.4,4.2-0.5,7.7l-4.6,17.8c-0.8,3-1.1,3.8-1.2,4.1
					c-0.6,1-1.3,1.8-2.2,2.3c-0.6,0.4-1.9,0.8-4.4,0.8h-0.1h-0.6l-0.1,0.6l-0.2,0.8l-0.2,0.9h1h18.4h0.6l0.1-0.6l0.2-0.8l0.2-0.9h-1
					c-2.1,0-2.7-0.2-3.2-0.5c-0.5-0.3-0.8-0.7-1-1.3c-0.1-0.6-0.1-1.9,0.7-5l4.5-17.7c0.9-3.7,1.3-6.6,1.1-8.6
					c-0.4-3.7-1.9-6-4.6-7.3c-0.9-0.4-2.1-0.4-2.5-0.4c-4.7,0-10.1,2.4-16.2,7.2l1.7-6.5L200.9,80.3L200.9,80.3z"/>
			</g>
			<g>
				<linearGradient id="SVGID_4_" gradientUnits="userSpaceOnUse" x1="251.4211" y1="126.02" x2="251.4211" y2="54.1226">
					<stop  offset="0.2" style="stop-color:#007E5C"/>
					<stop  offset="0.2018" style="stop-color:#098362"/>
					<stop  offset="0.2119" style="stop-color:#379A7F"/>
					<stop  offset="0.2233" style="stop-color:#62B09B"/>
					<stop  offset="0.2355" style="stop-color:#88C3B3"/>
					<stop  offset="0.2488" style="stop-color:#A8D3C8"/>
					<stop  offset="0.2634" style="stop-color:#C4E1D9"/>
					<stop  offset="0.28" style="stop-color:#DAECE7"/>
					<stop  offset="0.2994" style="stop-color:#EBF5F2"/>
					<stop  offset="0.3233" style="stop-color:#F6FBF9"/>
					<stop  offset="0.3568" style="stop-color:#FDFEFE"/>
					<stop  offset="0.45" style="stop-color:#FFFFFF"/>
					<stop  offset="0.4636" style="stop-color:#FEF8F0"/>
					<stop  offset="0.4899" style="stop-color:#FCE6C7"/>
					<stop  offset="0.5263" style="stop-color:#F8C886"/>
					<stop  offset="0.5709" style="stop-color:#F3A02E"/>
					<stop  offset="0.58" style="stop-color:#F2971B"/>
				</linearGradient>
				<path class="st6" d="M250.1,125.2l1.4-5.4c-2.5,1.8-4.8,3.1-6.9,4c-2.4,0.9-4.9,1.4-7.3,1.4c-3.2,0-7.6-1.5-10.2-5.9
					c-2.5-4.1-2.9-8.9-1.4-14.8c1.7-6.5,4.9-11.9,9.9-16.5c5.3-4.8,11-7.5,16.3-7.5c3.8,0,6.8,1,8.9,3.1l1.8-7
					c1.2-4.8,2.9-11.9,3-12.9c0-1-0.1-1.6-0.5-1.9c-0.4-0.3-0.9-0.5-1.6-0.5c-0.8,0-6.1,1.5-8,2l-0.3,0.1l-0.7-1l17.9-6.9h1.9
					l-13.4,52.3c-1.2,4.8-1.9,7.8-1.9,8.8c0,1,0.1,1.6,0.5,2c0.2,0.2,0.5,0.3,0.9,0.3c0.2,0,0.3,0,0.5-0.1c0.8-0.1,7.5-3.1,13.4-5.7
					l0.6-0.3l3.1-0.1l-25.7,12.4H250.1z M250.6,84.1c-2.8,0-5.7,1.2-8.5,3.6c-3.8,3.2-6.5,7.9-8,14c-1.6,6.2-1.4,10.9,0.6,14.2
					c2,3.3,4.7,4.8,8.1,4.8c2.9,0,6.1-1.4,9.5-4.1l5.6-21.9c0.3-2,0.2-3.9-0.3-5.6c-0.5-1.6-1.5-2.9-2.8-3.7
					C253.5,84.6,252,84.1,250.6,84.1z"/>
				<path class="st3" d="M273.9,55.9l-13.3,51.9c-1.2,4.8-1.9,7.8-1.9,8.9c0,1.1,0.2,1.8,0.6,2.2c0.3,0.3,0.7,0.4,1.2,0.4
					c0.2,0,0.4,0,0.6-0.1c0.9-0.2,7.6-3.1,14-6l1.3,0l-24.1,11.6h-1.7l1.5-5.9c-2.8,2.1-5.3,3.6-7.7,4.5c-2.4,0.9-4.8,1.4-7.2,1.4
					c-3.4,0-7.4-1.6-9.8-5.7c-2.4-4-2.8-8.6-1.3-14.6c1.5-5.9,4.5-11.4,9.8-16.3c5.4-4.9,11-7.4,16-7.4c4,0,7,1.2,9,3.5l2-7.6
					c1.2-4.7,2.9-11.9,3-13c0-1.1-0.2-1.8-0.6-2.2c-0.4-0.4-1-0.6-1.8-0.6c-0.9,0-6.5,1.6-8.1,2l-0.3-0.4l17.4-6.7H273.9
					 M242.8,121.1c3,0,6.3-1.4,9.8-4.2l5.7-22c0.3-2.1,0.2-4-0.3-5.8c-0.5-1.7-1.5-3.1-2.9-3.9s-2.9-1.3-4.5-1.3
					c-2.9,0-5.8,1.2-8.7,3.7c-3.8,3.2-6.6,8-8.2,14.2c-1.6,6.3-1.4,11.1,0.7,14.4C236.4,119.4,239.2,121.1,242.8,121.1 M274.8,55.2
					h-1h-1.4h-0.1l-0.1,0l-17.4,6.7l-0.8,0.3l0.5,0.8l0.3,0.4l0.3,0.5l0.5-0.2c1.9-0.6,7.2-2,7.8-2c0.6,0,1,0.1,1.3,0.4
					c0.1,0.1,0.4,0.5,0.4,1.6c0,0.9-1.6,7.5-2.9,12.8l-1.6,6.4c-2.1-1.8-5-2.8-8.6-2.8c-5.3,0-11.2,2.7-16.5,7.6
					c-5.1,4.7-8.4,10.1-10,16.6c-1.6,6.1-1.1,10.9,1.4,15.1c2.6,4.4,7.2,6,10.5,6c2.5,0,5-0.5,7.5-1.4c1.9-0.7,4-1.9,6.2-3.4l-1,3.9
					l-0.2,0.9h1h1.7h0.2l0.2-0.1l24.1-11.6l3.1-1.5l-3.4,0.1l-1.3,0l-0.1,0l-0.1,0.1l-0.6,0.3c-5.6,2.5-12.5,5.5-13.3,5.7
					c-0.2,0-0.3,0-0.5,0c-0.4,0-0.5-0.1-0.6-0.2c-0.3-0.3-0.4-0.9-0.4-1.7c0-0.7,0.4-2.8,1.9-8.7l13.3-51.9L274.8,55.2L274.8,55.2z
					 M242.8,120.4c-3.3,0-5.9-1.5-7.8-4.7c-1.9-3.2-2.1-7.8-0.6-13.9c1.6-6,4.2-10.7,7.9-13.8c2.8-2.3,5.5-3.5,8.3-3.5
					c1.4,0,2.8,0.4,4.1,1.2c1.3,0.8,2.1,2,2.6,3.5c0.5,1.6,0.6,3.4,0.3,5.4l-5.6,21.8C248.6,119,245.5,120.4,242.8,120.4
					L242.8,120.4z"/>
			</g>
			<g>
				<linearGradient id="SVGID_5_" gradientUnits="userSpaceOnUse" x1="281.745" y1="126.0515" x2="281.745" y2="53.9352">
					<stop  offset="0.2" style="stop-color:#007E5C"/>
					<stop  offset="0.2018" style="stop-color:#098362"/>
					<stop  offset="0.2119" style="stop-color:#379A7F"/>
					<stop  offset="0.2233" style="stop-color:#62B09B"/>
					<stop  offset="0.2355" style="stop-color:#88C3B3"/>
					<stop  offset="0.2488" style="stop-color:#A8D3C8"/>
					<stop  offset="0.2634" style="stop-color:#C4E1D9"/>
					<stop  offset="0.28" style="stop-color:#DAECE7"/>
					<stop  offset="0.2994" style="stop-color:#EBF5F2"/>
					<stop  offset="0.3233" style="stop-color:#F6FBF9"/>
					<stop  offset="0.3568" style="stop-color:#FDFEFE"/>
					<stop  offset="0.45" style="stop-color:#FFFFFF"/>
					<stop  offset="0.4636" style="stop-color:#FEF8F0"/>
					<stop  offset="0.4899" style="stop-color:#FCE6C7"/>
					<stop  offset="0.5263" style="stop-color:#F8C886"/>
					<stop  offset="0.5709" style="stop-color:#F3A02E"/>
					<stop  offset="0.58" style="stop-color:#F2971B"/>
				</linearGradient>
				<path class="st7" d="M267.3,123.1l0.4-1.4h0.3c2.4,0,4.6-0.2,5.3-0.6c0.8-0.4,1.5-1,2.1-1.8c0.6-0.9,1.3-2.6,1.9-5.1l4.3-16.8
					c1.2-4.6,1.8-7.8,1.9-9c0-0.9-0.1-1.4-0.4-1.7c-0.3-0.3-0.9-0.5-1.6-0.5c-0.8,0-2.1,0.3-3.6,0.8l-0.3,0.1l-0.7-1.3l12.8-5.3h2.7
					l-8.7,33.9c-0.7,2.5-0.9,4.2-0.7,5c0.2,0.8,0.5,1.3,1.1,1.7c0.5,0.3,2.6,0.6,5,0.6h0.5l-0.4,1.4H267.3z M289.5,78.7
					c-1.5,0-2.6-0.5-3.4-1.5c-0.8-1-1.1-2.2-0.7-3.6c0.3-1.3,1.2-2.5,2.4-3.5c1.2-0.9,2.6-1.4,4.1-1.4c1.5,0,2.6,0.5,3.4,1.5
					c0.8,1,1,2.2,0.7,3.6c-0.3,1.3-1.2,2.5-2.4,3.5C292.3,78.2,291,78.7,289.5,78.7z"/>
				<path class="st3" d="M291.9,69.1c1.4,0,2.4,0.4,3.1,1.3c0.7,0.9,0.9,2,0.6,3.2c-0.3,1.3-1.1,2.4-2.3,3.3
					c-1.2,0.9-2.5,1.4-3.8,1.4s-2.4-0.5-3.2-1.4c-0.7-0.9-0.9-2-0.6-3.3c0.3-1.3,1.1-2.4,2.3-3.2C289.2,69.6,290.5,69.1,291.9,69.1
					 M292,80.9l-8.6,33.4c-0.7,2.6-0.9,4.3-0.7,5.2c0.2,0.9,0.6,1.5,1.3,1.9c0.7,0.4,3,0.6,5.2,0.6l-0.2,0.6h-21.2l0.2-0.6
					c2.2,0,4.6-0.2,5.5-0.6c0.8-0.4,1.6-1,2.3-2c0.7-0.9,1.3-2.6,2-5.2l4.3-16.8c1.2-4.5,1.9-7.8,1.9-9.1c0-1-0.2-1.6-0.6-2
					c-0.4-0.4-1-0.6-1.9-0.6c-0.9,0-2.3,0.3-3.7,0.8l-0.3-0.6l12.4-5.1H292 M291.9,68.4c-1.6,0-3,0.5-4.3,1.5
					c-1.3,1-2.2,2.2-2.5,3.7c-0.4,1.5-0.1,2.8,0.8,3.9c0.9,1.1,2.1,1.6,3.7,1.6c1.5,0,3-0.5,4.3-1.5c1.3-1,2.2-2.2,2.5-3.7
					c0.4-1.5,0.1-2.8-0.7-3.9C294.7,68.9,293.5,68.4,291.9,68.4L291.9,68.4z M293,80.2h-1h-2.1h-0.1l-0.1,0.1l-12.4,5.1l-0.8,0.3
					l0.4,0.7l0.3,0.6l0.3,0.6l0.6-0.2c1.5-0.5,2.7-0.7,3.5-0.7c0.6,0,1.1,0.1,1.3,0.4c0.1,0.1,0.3,0.5,0.3,1.5c0,1.2-0.7,4.4-1.9,9
					l-4.3,16.8c-0.6,2.5-1.3,4.1-1.9,5c-0.6,0.8-1.3,1.4-2,1.7c-0.6,0.3-2.9,0.5-5.2,0.5h-0.6l-0.1,0.6l-0.2,0.6l-0.2,0.9h1H289h0.6
					l0.1-0.6l0.2-0.6l0.2-0.9h-1c-2.4,0-4.3-0.3-4.8-0.5c-0.5-0.3-0.8-0.8-1-1.5c-0.1-0.5-0.1-1.8,0.7-4.9l8.6-33.4L293,80.2
					L293,80.2z"/>
			</g>
		</g>
	</g>
</g>
<g id="裁ち落とし">
</g>
</svg>
